<?xml version="1.0" encoding="UTF-8" standalone="no"?>
<!DOCTYPE svg  PUBLIC '-//W3C//DTD SVG 1.1//EN'  'http://www.w3.org/Graphics/SVG/1.1/DTD/svg11.dtd'>
<svg xmlns="http://www.w3.org/2000/svg">
<defs>
<font id="HelveticaNeueLTCom-Hv" horiz-adv-x="630">
<font-face underline-position="-50" font-weight="800" descent="-200" panose-1="2 11 8 4 2 2 2 2 2 4" units-per-em="1000" unicode-range="U+0020-25CA" bbox="-169 -234 1096 950" x-height="519" underline-thickness="50" font-family="HelveticaNeueLTCom" ascent="800" cap-height="714"/>
<missing-glyph horiz-adv-x="1000"/>
<glyph glyph-name=".notdef" horiz-adv-x="1000"/>
<glyph glyph-name=".null" horiz-adv-x="1000"/>
<glyph glyph-name="nonmarkingreturn" horiz-adv-x="0"/>
<glyph glyph-name="space" horiz-adv-x="315" unicode=" "/>
<glyph glyph-name="exclam" horiz-adv-x="296" unicode="!" d="M236 537l-46 -301h-83l-46 301v177h175v-177zM55 186h186v-186h-186v186z"/>
<glyph glyph-name="quotedbl" horiz-adv-x="500" unicode='&quot;' d="M294 714h144v-360h-144v360zM62 714h144v-360h-144v360z"/>
<glyph glyph-name="numbersign" d="M531 190h-77l-26 -190h-115l26 190h-81l-26 -190h-115l26 190h-74v105h89l15 110h-74v105h89l26 187h115l-26 -187h81l26 187h115l-26 -187h62v-105h-77l-15 -110h62v-105zM288 405l-15 -110h81l15 110h-81z" unicode="#"/>
<glyph glyph-name="dollar" d="M345 129q16 1 33 5t31 12.5t22.5 21t8.5 30.5q0 29 -26 45.5t-69 28.5v-143zM298 585q-15 0 -30 -3.5t-27.5 -11t-20.5 -20t-8 -30.5q0 -24 24 -38t62 -25v128zM345 728q50 -3 96.5 -18t82 -43.5t57.5 -71t22 -100.5h-186v6q0 33 -20 52.5t-52 27.5v-136q17 -5 36 -9.5 t38 -9.5q39 -11 76 -26.5t66 -39t47 -58t18 -82.5q0 -63 -23.5 -106.5t-62.5 -71.5t-89.5 -41.5t-105.5 -15.5v-90h-47v90q-59 2 -112 16.5t-93 44.5t-64 77t-24 113h186q3 -54 31 -78.5t76 -29.5v157q-14 4 -30 8t-33 9q-38 11 -75.5 26t-67 38.5t-48 58t-18.5 83.5 q0 58 24 99t63 67.5t87.5 39.5t97.5 15v90h47v-91z" unicode="$"/>
<glyph glyph-name="percent" horiz-adv-x="1019" unicode="%" d="M192 514q0 -15 1 -34t6 -36.5t16 -29.5t32 -12q20 0 31 12t16 29.5t6 36.5t1 34t-1 34t-6 36.5t-16 29.5t-31 12q-21 0 -32 -12t-16 -29.5t-6 -36.5t-1 -34zM260 -27l404 751h99l-404 -751h-99zM75 514q0 41 11 76t32 61t53 40.5t76 14.5t76.5 -14t53.5 -39t31 -60.5 t10 -78.5q0 -42 -9.5 -77.5t-30 -61t-53 -39.5t-78.5 -14q-45 0 -77.5 14t-53.5 40t-31 61t-10 77zM602 183q0 41 11 76t32 61t53 40.5t76 14.5t76.5 -14t53.5 -39t31 -60.5t10 -78.5q0 -42 -9.5 -77.5t-30 -61t-53 -39.5t-78.5 -14q-45 0 -77.5 14t-53.5 40t-31 61t-10 77z M719 183q0 -15 1 -34t6 -36.5t16 -29.5t32 -12q20 0 31 12t16 29.5t6 36.5t1 34t-1 34t-6 36.5t-16 29.5t-31 12q-21 0 -32 -12t-16 -29.5t-6 -36.5t-1 -34z"/>
<glyph glyph-name="ampersand" horiz-adv-x="722" unicode="&amp;" d="M281 299q-13 -6 -27.5 -15.5t-27 -21.5t-20.5 -26.5t-8 -30.5q0 -19 8 -34t21.5 -25.5t30.5 -16.5t34 -6q24 0 49.5 16t45.5 35zM477 60q-47 -38 -96 -56.5t-109 -18.5q-48 0 -91 15.5t-75.5 44t-52 68.5t-19.5 90q0 38 13 70t35.5 57.5t52 45.5t61.5 35 q-26 29 -44.5 62.5t-18.5 74.5q0 42 17.5 75.5t46 57t65 36t75.5 12.5q40 0 76.5 -13t64.5 -37t44.5 -58t16.5 -77q0 -63 -34 -106.5t-88 -70.5l74 -89q21 32 26 70h146q-5 -48 -25.5 -93.5t-53.5 -80.5l150 -174h-207zM334 466q26 16 46 36t20 52q0 26 -17 40.5t-43 14.5 q-23 0 -39.5 -15t-16.5 -38q0 -29 16.5 -49t33.5 -41z"/>
<glyph glyph-name="quotesingle" horiz-adv-x="296" unicode="&apos;" d="M76 714h144v-360h-144v360z"/>
<glyph glyph-name="parenleft" horiz-adv-x="296" unicode="(" d="M305 729q-51 -104 -80.5 -215.5t-29.5 -224.5v-15v-14q0 -109 29.5 -219.5t80.5 -214.5h-144q-31 60 -54 113.5t-38.5 106.5t-23.5 108.5t-9 119.5q1 67 9 123.5t23.5 110t38.5 107.5t54 114h144z"/>
<glyph glyph-name="parenright" horiz-adv-x="296" unicode=")" d="M135 729q31 -60 54 -114t38.5 -107.5t23.5 -110t9 -123.5q-1 -64 -9 -119.5t-23.5 -108.5t-38.5 -106.5t-54 -113.5h-144q51 104 80.5 214.5t29.5 219.5v14v15q0 113 -29.5 224.5t-80.5 215.5h144z"/>
<glyph glyph-name="asterisk" horiz-adv-x="444" unicode="*" d="M374 396l-79 -59l-75 107l-74 -107l-78 58l79 104l-122 38l31 93l116 -44v128h99v-128l116 44l31 -93l-121 -38z"/>
<glyph glyph-name="plus" horiz-adv-x="600" unicode="+" d="M228 506h144v-181h180v-144h-180v-181h-144v181h-180v144h180v181z"/>
<glyph glyph-name="comma" horiz-adv-x="316" unicode="," d="M65 186h186v-165q0 -54 -18.5 -90t-46.5 -58.5t-60.5 -33t-60.5 -13.5v80q41 11 59 33t23 61h-82v186z"/>
<glyph glyph-name="hyphen" horiz-adv-x="407" unicode="-" d="M48 200v144h311v-144h-311z"/>
<glyph glyph-name="period" horiz-adv-x="316" unicode="." d="M65 186h186v-186h-186v186z"/>
<glyph glyph-name="slash" horiz-adv-x="407" unicode="/" d="M260 729h156l-269 -744h-156z"/>
<glyph glyph-name="zero" d="M315 129q42 0 65 21.5t34.5 54.5t13.5 71.5t2 72.5t-2 72.5t-13.5 71t-34.5 54t-65 21.5q-41 0 -63.5 -21.5t-34 -54t-14 -71t-2.5 -72.5t2.5 -72.5t14 -71.5t34 -54.5t63.5 -21.5zM310 -9q-74 0 -126 30t-84.5 79.5t-47.5 114t-15 134.5t15 134.5t47.5 114t84.5 79 t126 29.5q76 0 130 -29.5t88.5 -79t50 -114t15.5 -134.5t-15.5 -134.5t-50 -114t-88.5 -79.5t-130 -30z" unicode="0"/>
<glyph glyph-name="one" d="M105 428v125h9q32 0 65.5 6.5t62.5 23.5t47.5 45t21.5 69h141v-697h-180v428h-167z" unicode="1"/>
<glyph glyph-name="two" d="M32 0q1 67 29 127t80 105q45 39 93 67.5t89 54.5q40 26 65.5 53.5t25.5 62.5q0 41 -24.5 64t-65.5 23q-34 0 -56 -11.5t-35.5 -30.5t-19 -45t-5.5 -54h-159q-1 12 -1 23q0 51 16.5 100t52.5 87t88.5 59t117.5 21q52 0 99 -13.5t83 -41t57.5 -69t21.5 -97.5 q0 -50 -16.5 -86t-44 -64t-63.5 -50.5t-74 -46.5q-20 -12 -36 -22t-30 -20.5t-28.5 -23t-31.5 -28.5h331v-144h-559z" unicode="2"/>
<glyph glyph-name="three" d="M257 426q11 1 22.5 -0.5t22.5 -0.5q19 0 39 3t36.5 11t27 22t10.5 37q0 34 -29 52t-71 18q-52 0 -80.5 -25.5t-27.5 -73.5h-159q1 58 22 102.5t56.5 74.5t83.5 45t104 15q45 0 91.5 -10t84 -33t61 -60t23.5 -90q0 -23 -6 -45.5t-18.5 -41.5t-30.5 -32t-42 -17v-2 q60 -16 89.5 -57t29.5 -103q0 -59 -24.5 -101.5t-64.5 -69.5t-90.5 -40t-102.5 -13q-61 0 -114.5 16t-92.5 48t-59 77.5t-20 99.5q0 10 1 21h159v-6q0 -118 125 -118q22 0 42 5t36 15.5t25.5 26.5t9.5 39q0 29 -10 47.5t-26.5 29t-39.5 14.5t-48 4q-11 0 -22.5 -0.5 t-22.5 -1.5v118z" unicode="3"/>
<glyph glyph-name="four" d="M597 299v-144h-91v-155h-170v155h-305v159l312 383h163v-398h91zM341 299v225h-2l-176 -225h178z" unicode="4"/>
<glyph glyph-name="five" d="M192 216q0 -21 10.5 -37t26.5 -27t36 -17t39 -6q50 0 83 30.5t33 81.5t-28.5 83t-81.5 32q-36 0 -63.5 -10.5t-47.5 -42.5h-154l68 394h440v-144h-309l-26 -127h2q26 26 61 38t75 12q54 0 97 -15t73.5 -44t47 -71.5t16.5 -96.5q0 -65 -22 -113t-60.5 -80.5t-90.5 -48.5 t-113 -16q-57 0 -107 11.5t-87.5 38t-60.5 69.5t-27 106h170z" unicode="5"/>
<glyph glyph-name="six" d="M207 237q0 -45 30 -76.5t80 -31.5q27 0 48.5 8.5t37 23.5t24 34.5t8.5 40.5q0 49 -30.5 83t-88.5 34q-24 0 -44 -9t-34.5 -25t-22.5 -37t-8 -45zM426 516q-5 21 -14 33.5t-21 20.5q-12 7 -25 9t-24 2q-37 0 -62.5 -16.5t-42 -42.5t-25 -57t-9.5 -61h2q26 43 69.5 58.5 t93.5 15.5q48 0 89.5 -18t71.5 -49.5t47.5 -73t17.5 -89.5q0 -62 -22 -110t-60.5 -80.5t-89 -49.5t-107.5 -17q-77 0 -130 30t-86 79.5t-47.5 113t-14.5 130.5q0 73 18 139t55.5 115.5t95 78.5t136.5 29q46 0 87 -12t73 -35.5t53.5 -59t29.5 -83.5h-159z" unicode="6"/>
<glyph glyph-name="seven" d="M60 697h507v-137q-11 -9 -29 -31t-39 -52t-42 -66.5t-39 -75.5q-43 -93 -57.5 -179.5t-15.5 -155.5h-183q1 31 7 70t17 82.5t27.5 90t40.5 92.5q18 40 39 75.5t41 62.5t36 45t24 23v2h-334v154z" unicode="7"/>
<glyph glyph-name="eight" d="M317 314q-23 0 -44 -6t-37.5 -18.5t-26.5 -31.5t-10 -44q0 -26 10 -44.5t26 -30.5t37 -17.5t44 -5.5q22 0 42.5 5.5t37 17t26.5 30t10 45.5q0 48 -33.5 74t-81.5 26zM29 205q0 30 9.5 58t27.5 50t42.5 37t54.5 20v2q-51 12 -77.5 51.5t-26.5 90.5q0 52 24 88.5t61.5 59.5 t83.5 33.5t90 10.5q45 0 90.5 -10.5t82 -34t60 -60t23.5 -88.5q0 -24 -7 -47t-20.5 -42t-32.5 -33t-43 -19v-2q60 -12 95.5 -55.5t35.5 -109.5q0 -58 -25 -98.5t-65.5 -66t-91.5 -37.5t-103 -12q-51 0 -102.5 10.5t-93 35.5t-67 66t-25.5 102zM316 581q-21 0 -40 -4.5 t-34 -14t-23.5 -24.5t-8.5 -37q0 -23 9 -39t24 -25.5t34 -13.5t39 -4q19 0 38 4.5t34.5 14t25 25t9.5 38.5q0 21 -9 36.5t-24 25t-34 14t-40 4.5z" unicode="8"/>
<glyph glyph-name="nine" d="M308 343q27 0 48.5 9t36.5 24.5t23 36t8 44.5q0 47 -31 79t-86 32q-24 0 -44.5 -9t-35 -24t-23 -34.5t-8.5 -41.5q0 -49 29.5 -82.5t82.5 -33.5zM205 181q3 -17 12 -29t22 -20t28.5 -12t31.5 -4q34 0 58 14.5t39.5 39.5t22.5 56.5t9 66.5h-2q-12 -20 -29 -34.5t-38 -23.5 t-44 -13t-45 -4q-52 0 -95 18t-73.5 49.5t-47.5 75t-17 94.5q0 56 21.5 102t58 79t85 51.5t102.5 18.5q76 0 131 -27t90 -73.5t52 -108.5t17 -132q0 -75 -16.5 -143t-53 -119.5t-94.5 -81.5t-141 -30q-96 0 -160.5 46.5t-82.5 143.5h159z" unicode="9"/>
<glyph glyph-name="colon" horiz-adv-x="316" unicode=":" d="M251 333h-186v186h186v-186zM65 186h186v-186h-186v186z"/>
<glyph glyph-name="semicolon" horiz-adv-x="316" unicode=";" d="M65 186h186v-165q0 -54 -18.5 -90t-46.5 -58.5t-60.5 -33t-60.5 -13.5v80q41 11 59 33t23 61h-82v186zM251 333h-186v186h186v-186z"/>
<glyph glyph-name="less" horiz-adv-x="600" unicode="&lt;" d="M46 182v142l508 190v-154l-307 -106v-2l307 -106v-154z"/>
<glyph glyph-name="equal" horiz-adv-x="600" unicode="=" d="M552 305h-504v144h504v-144zM552 57h-504v144h504v-144z"/>
<glyph glyph-name="greater" horiz-adv-x="600" unicode="&gt;" d="M46 146l307 106v2l-307 106v154l508 -190v-142l-508 -190v154z"/>
<glyph glyph-name="question" horiz-adv-x="574" unicode="?" d="M31 480q1 59 20 105.5t53.5 78.5t82 48.5t106.5 16.5q47 0 92 -12.5t80 -38t56.5 -63.5t21.5 -90q0 -36 -8.5 -62t-24.5 -46.5t-39 -37t-51 -34.5q-20 -13 -32.5 -23t-20 -21.5t-10.5 -27t-3 -37.5h-158v50q0 29 7.5 50.5t19 38t26 28.5t28.5 22q15 10 29.5 20t26 21 t18 25t6.5 33q0 29 -19 45t-46 16q-42 0 -63 -23t-23 -63v-19h-175zM182 186h186v-186h-186v186z"/>
<glyph glyph-name="at" horiz-adv-x="800" unicode="@" d="M386 252q47 0 74.5 31t27.5 74q0 36 -21.5 58.5t-57.5 22.5q-22 0 -40 -9t-31 -23.5t-20.5 -33.5t-7.5 -38q0 -35 19.5 -58.5t56.5 -23.5zM526 536h94l-44 -238q-2 -6 -3.5 -15.5t-2 -18.5t2 -15t10.5 -6q16 0 32.5 8.5t30 27t22 47.5t8.5 69q0 60 -19.5 105.5 t-54.5 75.5t-83 45.5t-105 15.5q-62 0 -112.5 -21t-86 -58t-54.5 -89t-19 -113q0 -66 21.5 -117.5t59.5 -87.5t91.5 -55t116.5 -19q57 0 104.5 15.5t84.5 43.5h98q-54 -74 -128.5 -112.5t-166.5 -38.5q-80 0 -150.5 27.5t-123.5 76.5t-83.5 117.5t-30.5 149.5q0 80 30 148 t82 118t121.5 78.5t148.5 28.5q66 0 128.5 -21t111.5 -60.5t78.5 -95.5t29.5 -125q0 -57 -14 -101t-36.5 -76t-50.5 -53.5t-55.5 -34.5t-51.5 -18.5t-39 -5.5q-28 0 -44.5 12.5t-17.5 36.5h-2q-15 -20 -38.5 -35t-57.5 -15q-32 0 -62 14.5t-53 39t-36.5 57.5t-13.5 70 q0 44 14 85t40.5 73t63.5 51t83 19q38 0 69 -13.5t54 -44.5z"/>
<glyph glyph-name="A" horiz-adv-x="704" unicode="A" d="M270 266h162l-79 250h-2zM258 714h189l267 -714h-194l-44 128h-249l-45 -128h-191z"/>
<glyph glyph-name="B" horiz-adv-x="722" unicode="B" d="M250 149h149q44 0 72 18t28 62q0 47 -29 65.5t-71 18.5h-149v-164zM64 714h334h12l63 -6q63 -7 100 -27t60 -55t23 -91q0 -48 -26 -85.5t-68 -58.5q57 -17 90 -62.5t33 -106.5q0 -64 -22 -106.5t-59.5 -68t-88.5 -36.5t-108 -11h-343v714zM250 433h144q12 0 25.5 3.5 t24.5 11.5t18.5 21t7.5 32q0 39 -23.5 54t-52.5 15h-144v-137z"/>
<glyph glyph-name="C" horiz-adv-x="759" unicode="C" d="M538 459q-8 54 -46.5 82t-97.5 28q-45 0 -76.5 -18t-51.5 -48t-29 -68t-9 -78t9 -78t29 -68t51.5 -48t76.5 -18q66 0 102.5 35t41.5 97h186q-4 -69 -30 -123.5t-69 -92t-101 -57t-126 -19.5q-81 0 -147 29t-112.5 79.5t-71.5 118t-25 145.5t25 145.5t71.5 118t112.5 79.5 t147 29q58 0 115.5 -18t103.5 -52.5t75.5 -85t31.5 -114.5h-186z"/>
<glyph glyph-name="D" horiz-adv-x="759" unicode="D" d="M64 714h307q82 0 147 -24t110 -70t69 -111.5t24 -148.5q0 -88 -24 -155t-69.5 -112.5t-110.5 -69t-146 -23.5h-307v714zM250 160h88q53 1 90.5 12.5t61 35.5t34.5 61.5t11 91.5q0 98 -50.5 145.5t-146.5 47.5h-88v-394z"/>
<glyph glyph-name="E" horiz-adv-x="685" unicode="E" d="M64 714h569v-149h-383v-125h350v-144h-350v-136h393v-160h-579v714z"/>
<glyph glyph-name="F" horiz-adv-x="611" unicode="F" d="M64 714h526v-149h-340v-146h294v-144h-294v-275h-186v714z"/>
<glyph glyph-name="G" horiz-adv-x="778" unicode="G" d="M723 0h-120l-11 78q-18 -26 -42.5 -43.5t-51 -28.5t-53.5 -16t-52 -5q-81 0 -147 29t-112.5 79.5t-71.5 118t-25 145.5t25 145.5t71.5 118t112.5 79.5t147 29q55 0 110.5 -15t100.5 -46.5t75.5 -80.5t36.5 -116h-186q-5 46 -44.5 72t-96.5 26q-45 0 -76.5 -18t-51.5 -48 t-29 -68t-9 -78t9 -78t29 -68t51.5 -48t76.5 -18q69 0 112.5 29.5t51.5 78.5h-130v138h300v-391z"/>
<glyph glyph-name="H" horiz-adv-x="741" unicode="H" d="M62 714h186v-260h245v260h186v-714h-186v294h-245v-294h-186v714z"/>
<glyph glyph-name="I" horiz-adv-x="315" unicode="I" d="M64 714h186v-714h-186v714z"/>
<glyph glyph-name="J" horiz-adv-x="593" unicode="J" d="M528 226q0 -241 -250 -241q-71 0 -119 19.5t-77 55t-41.5 84.5t-12.5 109v31h175v-66q0 -35 18.5 -54t53.5 -19q32 0 49.5 20.5t17.5 72.5v476h186v-488z"/>
<glyph glyph-name="K" horiz-adv-x="741" unicode="K" d="M64 714h186v-274l235 274h231l-264 -281l297 -433h-231l-192 300l-76 -80v-220h-186v714z"/>
<glyph glyph-name="L" horiz-adv-x="611" unicode="L" d="M64 714h186v-554h333v-160h-519v714z"/>
<glyph glyph-name="M" horiz-adv-x="926" unicode="M" d="M65 714h274l123 -476h2l123 476h274v-714h-175v542h-2l-150 -542h-142l-150 542h-2v-542h-175v714z"/>
<glyph glyph-name="N" horiz-adv-x="741" unicode="N" d="M62 714h191l248 -440h2v440h175v-714h-191l-248 445h-2v-445h-175v714z"/>
<glyph glyph-name="O" horiz-adv-x="778" unicode="O" d="M37 357q0 78 23.5 145.5t68.5 118t110.5 79.5t149.5 29t149.5 -29t110.5 -79.5t68.5 -118t23.5 -145.5t-23.5 -145.5t-68.5 -118t-110.5 -79.5t-149.5 -29t-149.5 29t-110.5 79.5t-68.5 118t-23.5 145.5zM223 357q0 -40 9 -78t29 -68t51.5 -48t76.5 -18t76.5 18t51.5 48 t29 68t9 78t-9 78t-29 68t-51.5 48t-76.5 18t-76.5 -18t-51.5 -48t-29 -68t-9 -78z"/>
<glyph glyph-name="P" horiz-adv-x="685" unicode="P" d="M64 714h339q50 0 96.5 -12t82.5 -39.5t57.5 -71.5t21.5 -107q0 -66 -18 -113t-52 -76.5t-81.5 -43t-106.5 -13.5h-153v-238h-186v714zM250 382h125q44 0 72 20t28 69q0 51 -28.5 72.5t-71.5 21.5h-125v-183z"/>
<glyph glyph-name="Q" horiz-adv-x="778" unicode="Q" d="M653 -74l-98 96q-72 -37 -166 -37q-84 0 -149.5 29t-110.5 79.5t-68.5 118t-23.5 145.5t23.5 145.5t68.5 118t110.5 79.5t149.5 29t149.5 -29t110.5 -79.5t68.5 -118t23.5 -145.5q0 -77 -22.5 -143t-66.5 -117l86 -83zM453 291l70 -68q17 29 24.5 63.5t7.5 70.5 q0 40 -9 78t-29 68t-51.5 48t-76.5 18t-76.5 -18t-51.5 -48t-29 -68t-9 -78t9 -78t29 -68t51.5 -48t76.5 -18q22 0 37 4l-56 55z"/>
<glyph glyph-name="R" horiz-adv-x="722" unicode="R" d="M64 714h364q47 0 92 -11t80 -35.5t56.5 -62.5t21.5 -92q0 -58 -27.5 -107.5t-84.5 -71.5v-2q28 -7 47 -25t31 -42t18 -51.5t8 -52.5q1 -11 2 -34t4 -48t9 -47t15 -32h-184q-6 9 -10 25t-6 33.5t-3 32.5t-2 23q-2 27 -6 53t-15 47t-30.5 33.5t-52.5 12.5h-141v-260h-186 v714zM250 404h156q42 0 64 21.5t22 62.5q0 40 -27.5 58.5t-66.5 18.5h-148v-161z"/>
<glyph glyph-name="S" horiz-adv-x="667" unicode="S" d="M209 240q3 -63 39 -87t96 -24q21 0 41.5 4t36.5 12.5t26 22.5t10 34q0 24 -17.5 39t-46.5 26t-65.5 19.5t-75.5 19.5q-38 11 -75.5 26t-67 38.5t-48 58t-18.5 83.5q0 58 26.5 99.5t68.5 67.5t94 38t102 12q53 0 104.5 -13.5t91.5 -41.5t65 -71.5t25 -103.5h-186 q1 24 -9 40.5t-26.5 26.5t-37.5 14.5t-42 4.5q-15 0 -31 -3t-29 -10t-21.5 -18.5t-8.5 -29.5q0 -21 17.5 -34t47 -23t66.5 -18t76 -19t76 -26.5t66 -39t47 -58t18 -82.5q0 -68 -26.5 -114t-70 -73.5t-99.5 -39.5t-115 -12q-62 0 -117.5 14t-98.5 45t-68.5 79t-25.5 117h186z "/>
<glyph glyph-name="T" horiz-adv-x="648" unicode="T" d="M630 554h-213v-554h-186v554h-213v160h612v-160z"/>
<glyph glyph-name="U" horiz-adv-x="741" unicode="U" d="M681 295q0 -155 -74.5 -232.5t-236.5 -77.5t-236.5 77.5t-74.5 232.5v419h186v-430q0 -69 28 -104t97 -35t97 35t28 104v430h186v-419z"/>
<glyph glyph-name="V" horiz-adv-x="648" unicode="V" d="M428 0h-214l-225 714h194l140 -531h2l140 531h194z"/>
<glyph glyph-name="W" horiz-adv-x="963" unicode="W" d="M766 0h-186l-98 492h-2l-98 -492h-189l-193 714h186l101 -522h2l105 522h175l105 -522h2l101 522h186z"/>
<glyph glyph-name="X" horiz-adv-x="704" unicode="X" d="M246 375l-233 339h219l120 -222l127 222h212l-231 -339l252 -375h-226l-134 238l-146 -238h-214z"/>
<glyph glyph-name="Y" horiz-adv-x="667" unicode="Y" d="M427 266v-266h-186v266l-260 448h211l142 -290l142 290h211z"/>
<glyph glyph-name="Z" horiz-adv-x="667" unicode="Z" d="M24 152l366 402h-344v160h584v-144l-375 -410h388v-160h-619v152z"/>
<glyph glyph-name="bracketleft" horiz-adv-x="370" unicode="[" d="M69 729h294v-144h-135v-615h135v-144h-294v903z"/>
<glyph glyph-name="backslash" horiz-adv-x="407" unicode="\" d="M416 -15h-156l-269 744h156z"/>
<glyph glyph-name="bracketright" horiz-adv-x="370" unicode="]" d="M301 -174h-294v144h135v615h-135v144h294v-903z"/>
<glyph glyph-name="asciicircum" horiz-adv-x="600" unicode="^" d="M47 332l162 365h182l162 -365h-160l-93 238l-94 -238h-159z"/>
<glyph glyph-name="underscore" horiz-adv-x="500" unicode="_" d="M0 -125v50h500v-50h-500z"/>
<glyph glyph-name="grave" horiz-adv-x="296" unicode="`" d="M242 576h-120l-157 149h180z"/>
<glyph glyph-name="a" horiz-adv-x="593" unicode="a" d="M199 149q0 -32 21 -45.5t50 -13.5q61 0 84 36q20 32 20 99v18q-18 -11 -47.5 -15.5t-57.5 -12.5q-29 -7 -49.5 -21t-20.5 -45zM50 359q2 51 24 85t57 54t77.5 28t87.5 8q46 0 89.5 -6.5t77.5 -25.5t54.5 -53t20.5 -89v-227q0 -33 2.5 -67.5t17.5 -65.5h-171 q-5 12 -6.5 24t-3.5 25q-33 -35 -78.5 -49.5t-92.5 -14.5q-37 0 -69.5 9.5t-56.5 29t-37.5 49t-13.5 69.5q0 42 14 70t38 46t55 28t64.5 16t67 10t63.5 10q22 5 33.5 14.5t11.5 33.5q0 15 -8 25t-20 16.5t-26.5 9.5t-27.5 3q-73 0 -85 -65h-159z"/>
<glyph glyph-name="b" d="M57 714h170v-252h2q52 72 148 72q55 0 96 -22t68.5 -59t41 -84t13.5 -98q0 -55 -13.5 -106.5t-41.5 -91.5t-72 -64t-105 -24q-92 0 -143 75h-2v-60h-162v714zM325 404q-17 0 -35.5 -6.5t-33.5 -22.5t-25 -43t-10 -67q0 -68 22.5 -109t80.5 -41q28 0 47.5 13.5t31.5 35 t17.5 48t5.5 53.5q0 25 -5 49.5t-17 44.5t-31.5 32.5t-47.5 12.5z" unicode="b"/>
<glyph glyph-name="c" horiz-adv-x="593" unicode="c" d="M395 329q0 16 -7 30t-18.5 24t-26.5 15.5t-31 5.5q-36 0 -57.5 -14t-33 -35.5t-15.5 -49t-4 -54.5q0 -25 5.5 -49.5t18 -43.5t31.5 -31t46 -12q45 0 68 23.5t29 65.5h165q-6 -52 -28 -93t-56.5 -69t-79.5 -42.5t-97 -14.5q-59 0 -108.5 19t-86 54t-57 84t-20.5 109 q0 62 19 114t54.5 89.5t85.5 58.5t113 21q48 0 92.5 -13t79.5 -38.5t57 -64t27 -89.5h-165z"/>
<glyph glyph-name="d" d="M306 404q-29 0 -49 -12.5t-32 -32.5t-17.5 -44.5t-5.5 -49.5q0 -27 5.5 -53.5t17.5 -48t32 -35t49 -13.5q31 0 50.5 13.5t31 34.5t15.5 46.5t4 50.5q0 28 -5.5 54t-17.5 46t-31 32t-47 12zM571 0h-162v60h-2q-51 -75 -143 -75q-61 0 -105 24t-72 64t-41.5 91.5 t-13.5 106.5q0 51 13.5 98t41 84t68.5 59t96 22q95 0 148 -71h2v251h170v-714z" unicode="d"/>
<glyph glyph-name="e" horiz-adv-x="611" unicode="e" d="M413 313q-2 44 -30 75t-71 31q-45 0 -73.5 -29t-36.5 -77h211zM202 218q2 -54 32 -86t84 -32q31 0 58 14t39 43h159q-12 -45 -37.5 -77.5t-60 -53.5t-76 -31t-84.5 -10q-63 0 -115.5 18.5t-90 54t-58 87t-20.5 116.5q0 60 22 110t60.5 86t89.5 56.5t108 20.5 q70 0 122 -24.5t86 -67.5q34 -42 50 -100q13 -48 13 -103v-21h-381z"/>
<glyph glyph-name="f" horiz-adv-x="370" unicode="f" d="M94 409h-82v110h82q0 56 10.5 93.5t33.5 60t61 32t92 9.5q20 0 41 -1t41 -2v-120q-24 3 -46 3q-29 0 -46 -8.5t-17 -43.5v-23h102v-110h-102v-409h-170v409z"/>
<glyph glyph-name="g" horiz-adv-x="611" unicode="g" d="M398 273q0 25 -5.5 48.5t-17.5 42t-31.5 29.5t-47.5 11t-47 -11.5t-30.5 -29.5t-16.5 -41.5t-5 -47.5q0 -23 5.5 -45t17.5 -39t30.5 -27.5t44.5 -10.5q27 0 46.5 10t32 26.5t18.5 38.5t6 46zM559 63q0 -32 -6.5 -74t-32 -80t-77.5 -64.5t-143 -26.5q-45 0 -88 6.5 t-77.5 24.5t-58.5 50.5t-31 84.5h170q6 -33 29 -45q21 -11 62 -11q30 0 48 10t27 26.5t11.5 38.5t2.5 46v49h-2q-23 -36 -59.5 -56t-78.5 -20q-59 0 -102 20t-71 54.5t-41.5 81.5t-13.5 102q0 52 15 98t44 80.5t71.5 55t97.5 20.5q94 0 139 -80h2v65h163v-456z"/>
<glyph glyph-name="h" d="M57 714h170v-266h2q10 20 27 36t38.5 27t45.5 17t47 6q65 0 102.5 -21t56 -51.5t23.5 -65.5t5 -63v-333h-170v251v52q0 26 -7.5 46t-25 32.5t-52.5 12.5q-24 0 -41.5 -9.5t-28.5 -25t-16.5 -35.5t-5.5 -41v-283h-170v714z" unicode="h"/>
<glyph glyph-name="i" horiz-adv-x="296" unicode="i" d="M63 519h170v-519h-170v519zM233 584h-170v130h170v-130z"/>
<glyph glyph-name="j" horiz-adv-x="296" unicode="j" d="M233 0q0 -49 -10 -82.5t-31 -53.5t-53.5 -29t-77.5 -9h-86v138h34q26 1 40 10.5t14 37.5v507h170v-519zM233 584h-170v130h170v-130z"/>
<glyph glyph-name="k" horiz-adv-x="593" unicode="k" d="M57 714h170v-368l155 173h197l-190 -196l214 -323h-205l-127 209l-44 -43v-166h-170v714z"/>
<glyph glyph-name="l" horiz-adv-x="296" unicode="l" d="M63 714h170v-714h-170v714z"/>
<glyph glyph-name="m" horiz-adv-x="926" unicode="m" d="M57 519h165v-71h2q23 39 62 62.5t87 23.5q49 0 89.5 -18.5t61.5 -65.5q31 42 70 63t92 21q62 0 98.5 -21t55 -54t24 -72.5t5.5 -76.5v-310h-170v305q0 42 -19 65.5t-52 23.5q-27 0 -43 -10t-24.5 -28.5t-10.5 -44.5t-2 -57v-254h-170v295q0 46 -14.5 72.5t-49.5 26.5 q-46 0 -66.5 -31t-20.5 -110v-253h-170v519z"/>
<glyph glyph-name="n" d="M57 519h165v-71h2q12 20 30 36t40 27t46 17t47 6q65 0 102.5 -21t56 -51.5t23.5 -65.5t5 -63v-333h-170v251v52q0 26 -7.5 46t-25 32.5t-52.5 12.5q-24 0 -41.5 -9.5t-28.5 -25t-16.5 -35.5t-5.5 -41v-283h-170v519z" unicode="n"/>
<glyph glyph-name="o" horiz-adv-x="611" unicode="o" d="M202 259q0 -25 5 -50.5t17 -46.5t31.5 -34t49.5 -13t50 13t32 34t17 46.5t5 50.5t-5 50.5t-17 46.5t-32 34.5t-50 13.5t-49.5 -13.5t-31.5 -34.5t-17 -46.5t-5 -50.5zM32 259q0 58 20 108.5t56 87.5t86.5 58t110.5 21t110.5 -21t87 -58t56.5 -87.5t20 -108.5 q0 -59 -20 -109t-56.5 -86.5t-87 -57.5t-110.5 -21t-110.5 21t-86.5 57.5t-56 86.5t-20 109z"/>
<glyph glyph-name="p" d="M325 404q-17 0 -35.5 -6.5t-33.5 -22.5t-25 -43t-10 -67q0 -68 22.5 -109t80.5 -41q28 0 47.5 13.5t31.5 35t17.5 48t5.5 53.5q0 25 -5 49.5t-17 44.5t-31.5 32.5t-47.5 12.5zM57 519h162v-60h2q51 75 143 75q61 0 105 -24t72 -64t41.5 -91.5t13.5 -106.5 q0 -51 -13.5 -98t-41 -84t-68.5 -59t-96 -22q-95 0 -148 71h-2v-230h-170v693z" unicode="p"/>
<glyph glyph-name="q" d="M202 254q0 -25 5 -49.5t17 -44.5t31.5 -32.5t47.5 -12.5q17 0 35.5 6.5t33.5 23t25 43t10 67.5q0 26 -4.5 52.5t-15.5 48t-31 35t-50 13.5q-29 0 -49 -13.5t-32 -35t-17.5 -48t-5.5 -53.5zM571 -174h-170v231h-2q-53 -72 -148 -72q-55 0 -96 22t-68.5 59t-41 84t-13.5 98 q0 55 13.5 106.5t41.5 91.5t72 64t105 24q92 0 143 -75h2v60h162v-693z" unicode="q"/>
<glyph glyph-name="r" horiz-adv-x="426" unicode="r" d="M63 519h165v-91h2q19 50 60 75.5t96 25.5q10 0 20 -1t20 -3v-155q-17 5 -32.5 7.5t-32.5 2.5q-32 0 -55.5 -10t-40 -27t-24.5 -39.5t-8 -46.5v-257h-170v519z"/>
<glyph glyph-name="s" horiz-adv-x="556" unicode="s" d="M189 171q0 -20 7.5 -34t20.5 -24q12 -9 28.5 -13.5t34.5 -4.5q12 0 26 3t26 9.5t20 17t8 25.5t-9 24.5t-21.5 15.5t-27 9t-25.5 6q-40 10 -82.5 18t-78 24.5t-58 45.5t-22.5 82q0 47 22.5 77.5t57.5 48.5t77 25.5t80 7.5q43 0 84.5 -7.5t75.5 -26t55.5 -51t23.5 -83.5 h-157q0 31 -22 45q-20 13 -54 13q-11 0 -23.5 -1t-23.5 -5t-18.5 -12t-7.5 -21q0 -18 19 -30t47.5 -19.5t62.5 -13.5t63 -12q39 -8 64.5 -25t40.5 -37t21 -41t6 -37q0 -52 -22.5 -87.5t-58 -57t-80 -31t-88.5 -9.5q-46 0 -91 8.5t-80.5 30t-58 57.5t-24.5 90h162z"/>
<glyph glyph-name="t" horiz-adv-x="389" unicode="t" d="M370 409h-105v-236q0 -31 16.5 -40.5t44.5 -9.5q11 0 22 1t22 1v-125q-23 -1 -46.5 -3t-46.5 -2q-54 0 -89.5 9t-56 30t-28.5 56t-8 88v231h-86v110h86v157h170v-157h105v-110z"/>
<glyph glyph-name="u" d="M573 0h-165v71h-2q-24 -40 -68.5 -63t-89.5 -23q-56 0 -93 15.5t-59 44.5t-31 70t-9 92v312h170v-301q0 -52 21.5 -72.5t62.5 -20.5q14 0 30 5t30 18.5t23.5 35.5t9.5 57v278h170v-519z" unicode="u"/>
<glyph glyph-name="v" horiz-adv-x="537" unicode="v" d="M366 0h-196l-173 519h177l95 -343h2l96 343h173z"/>
<glyph glyph-name="w" horiz-adv-x="833" unicode="w" d="M671 0h-172l-82 345h-2l-81 -345h-172l-162 519h172l87 -336h2l74 336h162l76 -335h2l85 335h173z"/>
<glyph glyph-name="x" horiz-adv-x="537" unicode="x" d="M173 272l-165 247h188l73 -124l73 124h180l-162 -244l184 -275h-188l-90 150l-85 -150h-188z"/>
<glyph glyph-name="y" horiz-adv-x="537" unicode="y" d="M340 -46q-15 -43 -35 -68t-46 -38.5t-59.5 -17.5t-76.5 -4h-80v138h59q29 0 48.5 15.5t19.5 42.5q0 10 -5.5 29t-12.5 39t-14 38.5t-11 29.5l-134 361h180l98 -338h2l98 338h174z"/>
<glyph glyph-name="z" horiz-adv-x="537" unicode="z" d="M22 132l259 257h-238v130h454v-129l-259 -260h278v-130h-494v132z"/>
<glyph glyph-name="braceleft" horiz-adv-x="370" unicode="{" d="M356 609h-41q-18 0 -29 -6.5t-16 -16t-6.5 -21t-1.5 -21.5v-164q0 -29 -12.5 -47.5t-30 -29t-37 -14.5t-35.5 -5v-3q16 -1 35.5 -4.5t37 -14t30 -30.5t12.5 -56v-165q0 -10 1.5 -21.5t6.5 -21t16 -16t29 -6.5h41v-120h-118q-28 0 -52.5 8t-43 26t-29 46t-10.5 68v173 q0 24 -10.5 37.5t-25 21t-29.5 9.5t-24 2v120q9 0 24 2t29.5 8t25 18t10.5 33v188q0 40 10.5 67.5t29 44.5t43 24t52.5 7h118v-120z"/>
<glyph glyph-name="bar" horiz-adv-x="222" unicode="|" d="M39 786h144v-1000h-144v1000z"/>
<glyph glyph-name="braceright" horiz-adv-x="370" unicode="}" d="M14 -54h41q18 0 29 6.5t16 16t6.5 21t1.5 21.5v165q0 36 12.5 56t30 30.5t37 14t35.5 4.5v3q-16 1 -35.5 5t-37 14.5t-30 29t-12.5 47.5v164q0 10 -1.5 21.5t-6.5 21t-16 16t-29 6.5h-41v120h118q28 0 52.5 -7t43 -24t29 -44.5t10.5 -67.5v-188q0 -21 10.5 -33t25 -18 t29.5 -8t24 -2v-120q-9 0 -24 -2t-29.5 -9.5t-25 -21t-10.5 -37.5v-173q0 -40 -10.5 -68t-29 -46t-43 -26t-52.5 -8h-118v120z"/>
<glyph glyph-name="asciitilde" horiz-adv-x="600" unicode="~" d="M531 233q-11 -16 -23.5 -31.5t-27 -27.5t-33 -19.5t-41.5 -7.5q-28 0 -52.5 9.5t-49.5 23.5q-24 14 -52 24.5t-63 10.5q-17 0 -29.5 -6.5t-23 -16.5t-18 -23t-13.5 -26l-36 130q8 16 19.5 31.5t26.5 27.5t34.5 19.5t44.5 7.5q26 0 54 -9.5t57 -22.5q28 -12 55 -24t47 -12 q15 0 27.5 6.5t23 16.5t19.5 23l18 26z"/>
<glyph glyph-name="uni00A0" horiz-adv-x="315" unicode=" "/>
<glyph glyph-name="exclamdown" horiz-adv-x="296" unicode="¡" d="M61 10l46 301h83l46 -301v-177h-175v177zM241 361h-186v186h186v-186z"/>
<glyph glyph-name="cent" d="M299 401q-26 -6 -41.5 -21t-24 -36t-11.5 -45t-3 -48q0 -23 4.5 -44.5t14 -40t25 -31.5t36.5 -17v283zM299 -13q-55 3 -101 23.5t-79 55t-51.5 81.5t-18.5 104q0 59 17.5 109t49.5 87t78.5 59.5t104.5 26.5v79h46v-79q44 -3 84 -17.5t71.5 -40t51.5 -62t25 -84.5h-165 q-1 29 -20.5 48.5t-46.5 23.5v-283q32 6 49.5 28.5t22.5 57.5h165q-6 -49 -26 -88t-51 -66.5t-72 -43.5t-88 -19v-92h-46v92z" unicode="¢"/>
<glyph glyph-name="sterling" d="M51 87q18 12 37.5 27.5t35 34.5t26 41t10.5 45q0 16 -3 33.5t-10 31.5h-106v105h67q-17 23 -30 52.5t-13 60.5q0 55 23 95t59.5 65.5t83 38t94.5 12.5q59 0 107.5 -15.5t83 -47t51.5 -75.5t17 -98v-12h-165v8q0 16 -3.5 32.5t-13 31t-25.5 23.5t-39 9q-38 0 -62.5 -20 t-24.5 -59q0 -11 4 -25t10 -28t13 -27t13 -21h119v-105h-89q7 -20 7 -42q0 -32 -15.5 -62.5t-53.5 -59.5l2 -2q16 11 35.5 15t39.5 4q26 0 57.5 -9.5t60.5 -9.5q32 0 50.5 11t38.5 34l69 -123q-43 -44 -85.5 -57.5t-88.5 -13.5q-25 0 -51 6t-53 13.5t-54.5 13.5t-54.5 6 q-29 0 -56 -12t-50 -27z" unicode="£"/>
<glyph glyph-name="currency" d="M58 148l44 45q-25 33 -38.5 72.5t-13.5 84.5q0 43 13 81.5t36 72.5l-45 44l60 60l45 -44q32 24 71.5 37.5t84.5 13.5t84.5 -13.5t71.5 -37.5l43 44l60 -60l-44 -44q23 -32 36.5 -71t13.5 -83t-13.5 -83t-36.5 -71l44 -44l-60 -60l-44 44q-32 -24 -71 -37.5t-84 -13.5 q-43 0 -81.5 12.5t-70.5 35.5l-45 -45zM194 350q0 -30 9.5 -55t26 -43t38.5 -27.5t47 -9.5t47 9.5t38.5 27.5t26 43t9.5 55t-9.5 55t-26 43t-38.5 27.5t-47 9.5t-47 -9.5t-38.5 -27.5t-26 -43t-9.5 -55z" unicode="¤"/>
<glyph glyph-name="yen" d="M481 413h103v-105h-156l-20 -41v-31h176v-105h-176v-131h-186v131h-176v105h176v31l-20 41h-156v105h104l-150 301h186l128 -301h2l128 301h186z" unicode="¥"/>
<glyph glyph-name="brokenbar" horiz-adv-x="222" unicode="¦" d="M39 161h144v-250h-144v250zM183 411h-144v250h144v-250z"/>
<glyph glyph-name="section" d="M407 185q11 3 23.5 11.5t16.5 19.5q5 10 5 19q0 11 -8.5 27t-43.5 35l-151 70q-15 8 -28 8t-22 -6t-14 -16.5t-6 -23.5v-5q0 -16 11.5 -27t29.5 -22zM397 534q0 33 -21 52q-20 18 -53 18q-23 0 -42 -13t-19 -39q0 -14 7.5 -24.5t18.5 -18.5t23.5 -14.5t23.5 -11.5 l166 -81q41 -24 68 -54t27 -82q0 -51 -26.5 -93.5t-76.5 -56.5q50 -42 50 -110q0 -48 -19 -83.5t-51 -59t-73 -34.5t-84 -11q-49 0 -92 11.5t-74.5 36t-50 63t-18.5 93.5h147q0 -19 7 -33.5t18 -25.5q23 -20 60 -20q30 0 50 16.5t20 45.5q0 25 -26 44t-64.5 36.5t-83.5 36 t-83.5 43t-64.5 58t-26 80.5q0 57 28 95t77 57q-20 23 -29 46t-9 54q0 44 20 76.5t52 54.5t70.5 32.5t76.5 10.5q46 0 86 -12t70 -36.5t48 -61t19 -85.5h-147z" unicode="§"/>
<glyph glyph-name="dieresis" horiz-adv-x="296" unicode="¨" d="M180 588v125h150v-125h-150zM-33 713h150v-125h-150v125z"/>
<glyph glyph-name="copyright" horiz-adv-x="800" unicode="©" d="M400 -15q-75 0 -144.5 25t-123.5 72.5t-86 116.5t-32 158q0 88 32 157.5t86 117t123.5 72.5t144.5 25t144.5 -25t123 -72.5t86 -117t32.5 -157.5q0 -89 -32.5 -158t-86 -116.5t-123 -72.5t-144.5 -25zM400 80q53 0 100.5 20.5t83 57t56.5 87.5t21 112t-21 112t-56.5 87.5 t-83 57t-100.5 20.5q-54 0 -101.5 -20.5t-83 -57t-56 -87.5t-20.5 -112t20.5 -112t56 -87.5t83 -57t101.5 -20.5zM593 303q-5 -39 -21.5 -68t-40.5 -49t-53.5 -30t-62.5 -10q-47 0 -85.5 16.5t-65.5 45.5t-42 68t-15 84q0 46 14 85.5t41 68t65 45t86 16.5q34 0 63.5 -10 t52.5 -29t38.5 -48t21.5 -66h-90q-7 32 -31.5 45t-54.5 13q-43 0 -66 -32t-23 -86q0 -52 25 -86.5t66 -34.5q35 0 58.5 14.5t25.5 47.5h94z"/>
<glyph glyph-name="ordfeminine" horiz-adv-x="377" unicode="ª" d="M239 520q-18 -7 -34 -10t-34 -7q-19 -4 -32.5 -12.5t-13.5 -27.5q0 -15 14 -22.5t33 -7.5q67 0 67 68v19zM14 592q1 38 15 59.5t37 33.5q23 11 52.5 16t69.5 5q37 0 69 -4t56 -16t37.5 -34.5t13.5 -58.5v-139q0 -20 1.5 -42t11.5 -50h-129q-5 14 -7 29q-15 -10 -28.5 -17 t-27.5 -12q-26 -9 -55 -9q-60 0 -95 23t-35 71q0 45 20 66.5t50 32.5q31 11 67.5 14t73.5 10q14 3 21.5 9t7.5 20t-18 20.5t-35 6.5q-47 0 -55 -34h-118z"/>
<glyph glyph-name="guillemotleft" horiz-adv-x="444" unicode="«" d="M45 346l159 128v-137l-86 -67l86 -66v-137l-159 127v152zM240 346l159 128v-137l-86 -67l86 -66v-137l-159 127v152z"/>
<glyph glyph-name="logicalnot" horiz-adv-x="600" unicode="¬" d="M408 305h-360v144h504v-329h-144v185z"/>
<glyph glyph-name="uni00AD" horiz-adv-x="407" unicode="­" d="M48 200v144h311v-144h-311z"/>
<glyph glyph-name="registered" horiz-adv-x="800" unicode="®" d="M346 156h-98v403h151q40 0 71.5 -5.5t53.5 -20t34 -38t12 -59.5q0 -56 -31.5 -80t-83.5 -26l103 -174h-95l-92 168h-25v-168zM417 395q26 0 40.5 9.5t14.5 41.5q0 15 -7.5 23t-19 12.5t-24.5 5.5t-24 1h-51v-93h71zM400 -15q-75 0 -144.5 25t-123.5 72.5t-86 116.5 t-32 158q0 88 32 157.5t86 117t123.5 72.5t144.5 25t144.5 -25t123 -72.5t86 -117t32.5 -157.5q0 -89 -32.5 -158t-86 -116.5t-123 -72.5t-144.5 -25zM400 80q53 0 100.5 20.5t83 57t56.5 87.5t21 112t-21 112t-56.5 87.5t-83 57t-100.5 20.5q-54 0 -101.5 -20.5t-83 -57 t-56 -87.5t-20.5 -112t20.5 -112t56 -87.5t83 -57t101.5 -20.5z"/>
<glyph glyph-name="macron" horiz-adv-x="296" unicode="¯" d="M-14 607v86h325v-86h-325z"/>
<glyph glyph-name="degree" horiz-adv-x="400" unicode="°" d="M40 546q0 33 12.5 62t34.5 51t51 34.5t62 12.5t62 -12.5t51 -34.5t34.5 -51t12.5 -62t-12.5 -62t-34.5 -51t-51 -34.5t-62 -12.5t-62 12.5t-51 34.5t-34.5 51t-12.5 62zM200 457q37 0 58.5 26t21.5 63t-21.5 63t-58.5 26t-58.5 -26t-21.5 -63t21.5 -63t58.5 -26z"/>
<glyph glyph-name="plusminus" horiz-adv-x="600" unicode="±" d="M228 518h144v-101h180v-144h-180v-101h-144v101h-180v144h180v101zM48 132h504v-144h-504v144z"/>
<glyph glyph-name="twosuperior" horiz-adv-x="378" unicode="²" d="M6 278q0 45 18.5 82.5t52.5 63.5q29 23 60.5 40.5t57.5 32.5q26 16 42.5 31.5t16.5 30.5q0 24 -15.5 38t-40.5 14q-38 0 -52.5 -25t-15.5 -59h-123v7q0 78 46 123q23 23 58.5 36t85.5 13q38 0 71.5 -8.5t58 -25.5t38.5 -43t14 -61q0 -27 -9.5 -47.5t-26.5 -37 t-39.5 -29.5t-47.5 -26q-32 -16 -50.5 -27t-28.5 -28h194v-95h-365z"/>
<glyph glyph-name="threesuperior" horiz-adv-x="378" unicode="³" d="M167 537q8 0 15 -0.5t14 -0.5q9 0 20.5 1.5t21.5 6t17 11.5t7 18q0 17 -18 27.5t-39 10.5q-28 0 -45.5 -15t-16.5 -41h-125q2 76 52.5 113.5t133.5 37.5q35 0 68 -6.5t58.5 -21t41 -38t15.5 -58.5q0 -29 -17 -52t-52 -28v-2q39 -5 58 -29.5t19 -65.5q0 -36 -16 -62 t-42.5 -42.5t-61 -24t-71.5 -7.5q-84 0 -139 33.5t-60 108.5v23h125q0 -34 19 -52t54 -18q12 0 23.5 2.5t21.5 8t16 13t6 17.5q0 30 -22.5 40.5t-51.5 10.5q-7 0 -14 -0.5t-15 -0.5v82z"/>
<glyph glyph-name="acute" horiz-adv-x="296" unicode="´" d="M322 725l-157 -149h-120l97 149h180z"/>
<glyph glyph-name="mu" d="M573 0h-165v71h-2q-24 -40 -68.5 -63t-89.5 -23q-13 0 -22 6v-165h-170v693h170v-301q0 -52 21.5 -72.5t62.5 -20.5q14 0 30 5t30 18.5t23.5 35.5t9.5 57v278h170v-519z" unicode="µ"/>
<glyph glyph-name="paragraph" horiz-adv-x="620" unicode="¶" d="M206 365q-109 0 -166 45t-57 126q0 54 19 88.5t52 54.5t78 27.5t97 7.5h314v-883h-120v793h-97v-793h-120v534z"/>
<glyph glyph-name="periodcentered" horiz-adv-x="315" unicode="·" d="M65 286q0 19 7.5 36t20 29.5t29.5 20t36 7.5t36 -7.5t29.5 -20t20 -29.5t7.5 -36t-7.5 -36t-20 -29.5t-29.5 -20t-36 -7.5t-36 7.5t-29.5 20t-20 29.5t-7.5 36z"/>
<glyph glyph-name="cedilla" horiz-adv-x="296" unicode="¸" d="M188 0l-40 -60l2 -2q10 3 19 4t21 1q14 0 29 -4t27.5 -13.5t20.5 -25t8 -37.5q0 -27 -10 -45.5t-27.5 -30t-41 -16.5t-49.5 -5q-33 0 -63.5 8.5t-54.5 22.5l19 45q21 -10 41.5 -14.5t40.5 -4.5q26 0 38.5 8t12.5 27q0 38 -43 38q-11 0 -20.5 -2t-19.5 -5l-22 19l57 92h55 z"/>
<glyph glyph-name="onesuperior" horiz-adv-x="378" unicode="¹" d="M54 523v90q24 0 47.5 4t42 13.5t30.5 26t14 40.5h100v-419h-125v245h-109z"/>
<glyph glyph-name="ordmasculine" horiz-adv-x="387" unicode="º" d="M193 448q21 0 34.5 8t21.5 20t11.5 26t3.5 27t-3.5 27.5t-11.5 26.5t-21.5 20t-34.5 8q-20 0 -33.5 -8t-21.5 -20t-11.5 -26.5t-3.5 -27.5t3.5 -27t11.5 -26t21.5 -20t33.5 -8zM193 353q-92 0 -143.5 48.5t-51.5 127.5q0 80 51.5 128.5t143.5 48.5q93 0 144.5 -48.5 t51.5 -128.5q0 -79 -51.5 -127.5t-144.5 -48.5z"/>
<glyph glyph-name="guillemotright" horiz-adv-x="444" unicode="»" d="M399 195l-159 -128v137l86 67l-86 66v137l159 -127v-152zM204 195l-159 -128v137l86 67l-86 66v137l159 -127v-152z"/>
<glyph glyph-name="onequarter" horiz-adv-x="945" unicode="¼" d="M199 -27l411 751h99l-411 -751h-99zM26 523v90q24 0 47.5 4t42 13.5t30.5 26t14 40.5h100v-419h-125v245h-109zM919 179v-90h-64v-89h-126v89h-199v99l203 231h122v-240h64zM730 179v123l-106 -123h106z"/>
<glyph glyph-name="onehalf" horiz-adv-x="945" unicode="½" d="M174 -27l411 751h99l-411 -751h-99zM15 523v90q24 0 47.5 4t42 13.5t30.5 26t14 40.5h100v-419h-125v245h-109zM557 0q0 45 18.5 82.5t52.5 63.5q29 23 60.5 40.5t57.5 32.5q26 16 42.5 31.5t16.5 30.5q0 24 -15.5 38t-40.5 14q-38 0 -52.5 -25t-15.5 -59h-125 q0 83 48 130q23 23 58.5 36t85.5 13q38 0 71.5 -8.5t58 -25.5t38.5 -43t14 -61q0 -27 -9.5 -47.5t-26.5 -37t-39.5 -29.5t-47.5 -26q-32 -16 -50.5 -27t-28.5 -28h194v-95h-365z"/>
<glyph glyph-name="threequarters" horiz-adv-x="945" unicode="¾" d="M177 535q8 0 15 -0.5t14 -0.5q9 0 20.5 1.5t21.5 6t17 12t7 19.5q0 17 -18 27.5t-39 10.5q-28 0 -45.5 -15t-16.5 -41h-125q2 76 52.5 113.5t133.5 37.5q35 0 68 -6.5t58.5 -21t41 -38t15.5 -58.5q0 -29 -17 -52t-52 -28v-2q39 -5 58 -29.5t19 -65.5q0 -36 -16 -62 t-42.5 -42.5t-61 -24t-71.5 -7.5q-84 0 -139 33.5t-60 108.5v23h125q0 -34 19 -52t54 -18q12 0 23.5 2.5t21.5 8t16 13t6 17.5q0 14 -6 23.5t-16.5 15t-24 8t-27.5 2.5q-7 0 -14 -0.5t-15 -0.5v82zM253 -27l411 751h99l-411 -751h-99zM930 179v-90h-64v-89h-126v89h-199v99 l203 231h122v-240h64zM741 179v123l-106 -123h106z"/>
<glyph glyph-name="questiondown" horiz-adv-x="574" unicode="¿" d="M543 67q-1 -59 -20 -105.5t-53.5 -78.5t-82.5 -48.5t-106 -16.5q-47 0 -92 12.5t-80 38t-56.5 63.5t-21.5 90q0 36 8.5 62t24.5 46.5t38.5 37t51.5 34.5q19 13 32 23t20.5 21.5t10.5 26.5t3 38h158v-50q0 -29 -7.5 -50.5t-19 -38t-26 -28.5t-28.5 -22 q-15 -11 -29.5 -20.5t-26 -21t-18 -25t-6.5 -32.5q0 -29 19 -45t46 -16q42 0 63 23t23 63v19h175zM392 361h-186v186h186v-186z"/>
<glyph glyph-name="Agrave" horiz-adv-x="704" unicode="À" d="M270 266h162l-79 250h-2zM258 714h189l267 -714h-194l-44 128h-249l-45 -128h-191zM433 762h-120l-157 149h180z"/>
<glyph glyph-name="Aacute" horiz-adv-x="704" unicode="Á" d="M270 266h162l-79 250h-2zM258 714h189l267 -714h-194l-44 128h-249l-45 -128h-191zM546 911l-157 -149h-120l97 149h180z"/>
<glyph glyph-name="Acircumflex" horiz-adv-x="704" unicode="Â" d="M270 266h162l-79 250h-2zM258 714h189l267 -714h-194l-44 128h-249l-45 -128h-191zM292 762h-128l112 149h152l112 -149h-128l-60 80z"/>
<glyph glyph-name="Atilde" horiz-adv-x="704" unicode="Ã" d="M270 266h162l-79 250h-2zM258 714h189l267 -714h-194l-44 128h-249l-45 -128h-191zM545 904q-3 -26 -11.5 -49t-23 -40t-35.5 -27.5t-49 -10.5q-23 0 -43 5.5t-38 12.5t-34 12.5t-30 5.5q-17 0 -28 -13.5t-16 -31.5h-71q3 24 12.5 48.5t24.5 44t36 31.5t48 12q20 0 40 -6 t40 -14q19 -8 36 -14.5t29 -6.5q17 0 27 11.5t15 29.5h71z"/>
<glyph glyph-name="Adieresis" horiz-adv-x="704" unicode="Ä" d="M270 266h162l-79 250h-2zM258 714h189l267 -714h-194l-44 128h-249l-45 -128h-191zM384 774v125h150v-125h-150zM171 899h150v-125h-150v125z"/>
<glyph glyph-name="Aring" horiz-adv-x="704" unicode="Å" d="M270 266h162l-79 250h-2zM258 714h189l267 -714h-194l-44 128h-249l-45 -128h-191zM352 742q-22 0 -43 7t-35.5 22t-21.5 34.5t-7 40.5q0 22 8 42t22.5 34t34.5 21t42 7t42 -7t34.5 -20.5t22.5 -34t8 -42.5t-8 -41.5t-22.5 -34t-34.5 -21.5t-42 -7zM352 794q22 0 37 15 t15 37q0 23 -15 37.5t-37 14.5t-37 -14.5t-15 -37.5q0 -22 15 -37t37 -15z"/>
<glyph glyph-name="AE" horiz-adv-x="1019" unicode="Æ" d="M298 266h162v299h-32zM320 714h648v-149h-328v-125h306v-144h-306v-136h337v-160h-517v128h-218l-58 -128h-198z"/>
<glyph glyph-name="Ccedilla" horiz-adv-x="759" unicode="Ç" d="M538 459q-8 54 -46.5 82t-97.5 28q-45 0 -76.5 -18t-51.5 -48t-29 -68t-9 -78t9 -78t29 -68t51.5 -48t76.5 -18q66 0 102.5 35t41.5 97h186q-4 -69 -30 -123.5t-69 -92t-101 -57.5q-54 -17 -117 -19l-30 -45l2 -2q10 3 19 4t21 1q14 0 29 -4t27.5 -13.5t20.5 -25t8 -37.5 q0 -27 -10 -45.5t-27.5 -30t-41 -16.5t-49.5 -5q-33 0 -63.5 8.5t-54.5 22.5l19 45q21 -10 41.5 -14.5t40.5 -4.5q26 0 38.5 8t12.5 27q0 38 -43 38q-11 0 -20.5 -2t-19.5 -5l-22 19l49 79q-56 6 -103 27q-66 29 -112.5 79.5t-71.5 118t-25 145.5t25 145.5t71.5 118 t112.5 79.5t147 29q58 0 115.5 -18t103.5 -52.5t75.5 -85t31.5 -114.5h-186z"/>
<glyph glyph-name="Egrave" horiz-adv-x="685" unicode="È" d="M64 714h569v-149h-383v-125h350v-144h-350v-136h393v-160h-579v714zM452 762h-120l-157 149h180z"/>
<glyph glyph-name="Eacute" horiz-adv-x="685" unicode="É" d="M64 714h569v-149h-383v-125h350v-144h-350v-136h393v-160h-579v714zM555 911l-157 -149h-120l97 149h180z"/>
<glyph glyph-name="Ecircumflex" horiz-adv-x="685" unicode="Ê" d="M64 714h569v-149h-383v-125h350v-144h-350v-136h393v-160h-579v714zM286 762h-128l112 149h152l112 -149h-128l-60 80z"/>
<glyph glyph-name="Edieresis" horiz-adv-x="685" unicode="Ë" d="M64 714h569v-149h-383v-125h350v-144h-350v-136h393v-160h-579v714zM381 774v125h150v-125h-150zM168 899h150v-125h-150v125z"/>
<glyph glyph-name="Igrave" horiz-adv-x="315" unicode="Ì" d="M64 714h186v-714h-186v714zM249 762h-120l-157 149h180z"/>
<glyph glyph-name="Iacute" horiz-adv-x="315" unicode="Í" d="M64 714h186v-714h-186v714zM342 911l-157 -149h-120l97 149h180z"/>
<glyph glyph-name="Icircumflex" horiz-adv-x="315" unicode="Î" d="M64 714h186v-714h-186v714zM97 762h-128l112 149h152l112 -149h-128l-60 80z"/>
<glyph glyph-name="Idieresis" horiz-adv-x="315" unicode="Ï" d="M64 714h186v-714h-186v714zM189 774v125h150v-125h-150zM-24 899h150v-125h-150v125z"/>
<glyph glyph-name="Eth" horiz-adv-x="759" unicode="Ð" d="M250 440h158v-144h-158v-136h88q53 1 90.5 12.5t61 35.5t34.5 61.5t11 91.5q0 98 -50.5 145.5t-146.5 47.5h-88v-114zM64 296h-72v144h72v274h307q82 0 147 -24t110 -70t69 -111.5t24 -148.5q0 -88 -24 -155t-69.5 -112.5t-110.5 -69t-146 -23.5h-307v296z"/>
<glyph glyph-name="Ntilde" horiz-adv-x="741" unicode="Ñ" d="M62 714h191l248 -440h2v440h175v-714h-191l-248 445h-2v-445h-175v714zM557 904q-3 -26 -11.5 -49t-23 -40t-35.5 -27.5t-49 -10.5q-23 0 -43 5.5t-38 12.5t-34 12.5t-30 5.5q-17 0 -28 -13.5t-16 -31.5h-71q3 24 12.5 48.5t24.5 44t36 31.5t48 12q20 0 40 -6t40 -14 q19 -8 36 -14.5t29 -6.5q17 0 27 11.5t15 29.5h71z"/>
<glyph glyph-name="Ograve" horiz-adv-x="778" unicode="Ò" d="M37 357q0 78 23.5 145.5t68.5 118t110.5 79.5t149.5 29t149.5 -29t110.5 -79.5t68.5 -118t23.5 -145.5t-23.5 -145.5t-68.5 -118t-110.5 -79.5t-149.5 -29t-149.5 29t-110.5 79.5t-68.5 118t-23.5 145.5zM223 357q0 -40 9 -78t29 -68t51.5 -48t76.5 -18t76.5 18t51.5 48 t29 68t9 78t-9 78t-29 68t-51.5 48t-76.5 18t-76.5 -18t-51.5 -48t-29 -68t-9 -78zM462 762h-120l-157 149h180z"/>
<glyph glyph-name="Oacute" horiz-adv-x="778" unicode="Ó" d="M37 357q0 78 23.5 145.5t68.5 118t110.5 79.5t149.5 29t149.5 -29t110.5 -79.5t68.5 -118t23.5 -145.5t-23.5 -145.5t-68.5 -118t-110.5 -79.5t-149.5 -29t-149.5 29t-110.5 79.5t-68.5 118t-23.5 145.5zM223 357q0 -40 9 -78t29 -68t51.5 -48t76.5 -18t76.5 18t51.5 48 t29 68t9 78t-9 78t-29 68t-51.5 48t-76.5 18t-76.5 -18t-51.5 -48t-29 -68t-9 -78zM591 911l-157 -149h-120l97 149h180z"/>
<glyph glyph-name="Ocircumflex" horiz-adv-x="778" unicode="Ô" d="M37 357q0 78 23.5 145.5t68.5 118t110.5 79.5t149.5 29t149.5 -29t110.5 -79.5t68.5 -118t23.5 -145.5t-23.5 -145.5t-68.5 -118t-110.5 -79.5t-149.5 -29t-149.5 29t-110.5 79.5t-68.5 118t-23.5 145.5zM223 357q0 -40 9 -78t29 -68t51.5 -48t76.5 -18t76.5 18t51.5 48 t29 68t9 78t-9 78t-29 68t-51.5 48t-76.5 18t-76.5 -18t-51.5 -48t-29 -68t-9 -78zM329 762h-128l112 149h152l112 -149h-128l-60 80z"/>
<glyph glyph-name="Otilde" horiz-adv-x="778" unicode="Õ" d="M37 357q0 78 23.5 145.5t68.5 118t110.5 79.5t149.5 29t149.5 -29t110.5 -79.5t68.5 -118t23.5 -145.5t-23.5 -145.5t-68.5 -118t-110.5 -79.5t-149.5 -29t-149.5 29t-110.5 79.5t-68.5 118t-23.5 145.5zM223 357q0 -40 9 -78t29 -68t51.5 -48t76.5 -18t76.5 18t51.5 48 t29 68t9 78t-9 78t-29 68t-51.5 48t-76.5 18t-76.5 -18t-51.5 -48t-29 -68t-9 -78zM578 904q-3 -26 -11.5 -49t-23 -40t-35.5 -27.5t-49 -10.5q-23 0 -43 5.5t-38 12.5t-34 12.5t-30 5.5q-17 0 -28 -13.5t-16 -31.5h-71q3 24 12.5 48.5t24.5 44t36 31.5t48 12q20 0 40 -6 t40 -14q19 -8 36 -14.5t29 -6.5q17 0 27 11.5t15 29.5h71z"/>
<glyph glyph-name="Odieresis" horiz-adv-x="778" unicode="Ö" d="M37 357q0 78 23.5 145.5t68.5 118t110.5 79.5t149.5 29t149.5 -29t110.5 -79.5t68.5 -118t23.5 -145.5t-23.5 -145.5t-68.5 -118t-110.5 -79.5t-149.5 -29t-149.5 29t-110.5 79.5t-68.5 118t-23.5 145.5zM223 357q0 -40 9 -78t29 -68t51.5 -48t76.5 -18t76.5 18t51.5 48 t29 68t9 78t-9 78t-29 68t-51.5 48t-76.5 18t-76.5 -18t-51.5 -48t-29 -68t-9 -78zM423 774v125h150v-125h-150zM210 899h150v-125h-150v125z"/>
<glyph glyph-name="multiply" horiz-adv-x="600" unicode="×" d="M54 397l102 102l144 -144l144 144l102 -102l-144 -144l144 -144l-102 -102l-144 144l-144 -144l-102 102l144 144z"/>
<glyph glyph-name="Oslash" horiz-adv-x="778" unicode="Ø" d="M495 529q-19 19 -45 29.5t-61 10.5q-45 0 -76.5 -18t-51.5 -48t-29 -68t-9 -78q0 -58 18 -106zM284 185q20 -19 46 -29.5t59 -10.5q45 0 76.5 18t51.5 48t29 68t9 78q0 27 -4 53.5t-14 51.5zM751 697l-87 -95q38 -49 57.5 -111.5t19.5 -133.5q0 -78 -23.5 -145.5 t-68.5 -118t-110.5 -79.5t-149.5 -29q-68 0 -123 18.5t-98 53.5l-89 -97l-57 50l92 101q-38 48 -57.5 111t-19.5 135q0 78 23.5 145.5t68.5 118t110.5 79.5t149.5 29q68 0 123 -18.5t99 -53.5l82 90z"/>
<glyph glyph-name="Ugrave" horiz-adv-x="741" unicode="Ù" d="M681 295q0 -155 -74.5 -232.5t-236.5 -77.5t-236.5 77.5t-74.5 232.5v419h186v-430q0 -69 28 -104t97 -35t97 35t28 104v430h186v-419zM449 762h-120l-157 149h180z"/>
<glyph glyph-name="Uacute" horiz-adv-x="741" unicode="Ú" d="M681 295q0 -155 -74.5 -232.5t-236.5 -77.5t-236.5 77.5t-74.5 232.5v419h186v-430q0 -69 28 -104t97 -35t97 35t28 104v430h186v-419zM582 911l-157 -149h-120l97 149h180z"/>
<glyph glyph-name="Ucircumflex" horiz-adv-x="741" unicode="Û" d="M681 295q0 -155 -74.5 -232.5t-236.5 -77.5t-236.5 77.5t-74.5 232.5v419h186v-430q0 -69 28 -104t97 -35t97 35t28 104v430h186v-419zM312 762h-128l112 149h152l112 -149h-128l-60 80z"/>
<glyph glyph-name="Udieresis" horiz-adv-x="741" unicode="Ü" d="M681 295q0 -155 -74.5 -232.5t-236.5 -77.5t-236.5 77.5t-74.5 232.5v419h186v-430q0 -69 28 -104t97 -35t97 35t28 104v430h186v-419zM401 774v125h150v-125h-150zM188 899h150v-125h-150v125z"/>
<glyph glyph-name="Yacute" horiz-adv-x="667" unicode="Ý" d="M427 266v-266h-186v266l-260 448h211l142 -290l142 290h211zM549 911l-157 -149h-120l97 149h180z"/>
<glyph glyph-name="Thorn" horiz-adv-x="685" unicode="Þ" d="M250 714v-92h153q50 0 96.5 -12t82.5 -39.5t57.5 -71.5t21.5 -107q0 -66 -18 -113t-52 -76.5t-81.5 -43t-106.5 -13.5h-153v-146h-186v714h186zM250 290h125q44 0 72 20t28 69q0 51 -28.5 72.5t-71.5 21.5h-125v-183z"/>
<glyph glyph-name="germandbls" d="M57 502q0 46 14.5 87t45 72t78 49.5t113.5 18.5q45 0 88.5 -11t78 -35t56 -61t21.5 -88q0 -44 -22.5 -83t-64.5 -54v-2q30 -6 54 -23t40 -41t24.5 -52.5t8.5 -58.5q0 -51 -17 -93t-47.5 -71t-73 -45t-93.5 -16q-21 0 -42 1.5t-42 3.5v129q11 -2 21.5 -3t21.5 -1 q49 0 75.5 30.5t26.5 78.5q0 33 -11.5 54t-31.5 33t-41.5 15.5t-40.5 3.5q-9 0 -18 -1v101q8 -1 16 -1q12 0 28.5 2.5t33 11.5t26.5 25t10 42q0 38 -22 58.5t-57 20.5q-31 0 -48.5 -9.5t-26 -26.5t-10.5 -40.5t-2 -51.5v-471h-170v502z" unicode="ß"/>
<glyph glyph-name="agrave" horiz-adv-x="593" unicode="à" d="M199 149q0 -32 21 -45.5t50 -13.5q61 0 84 36q20 32 20 99v18q-18 -11 -47.5 -15.5t-57.5 -12.5q-29 -7 -49.5 -21t-20.5 -45zM50 359q2 51 24 85t57 54t77.5 28t87.5 8q46 0 89.5 -6.5t77.5 -25.5t54.5 -53t20.5 -89v-227q0 -33 2.5 -67.5t17.5 -65.5h-171 q-5 12 -6.5 24t-3.5 25q-33 -35 -78.5 -49.5t-92.5 -14.5q-37 0 -69.5 9.5t-56.5 29t-37.5 49t-13.5 69.5q0 42 14 70t38 46t55 28t64.5 16t67 10t63.5 10q22 5 33.5 14.5t11.5 33.5q0 15 -8 25t-20 16.5t-26.5 9.5t-27.5 3q-73 0 -85 -65h-159zM418 576h-120l-157 149h180z "/>
<glyph glyph-name="aacute" horiz-adv-x="593" unicode="á" d="M199 149q0 -32 21 -45.5t50 -13.5q61 0 84 36q20 32 20 99v18q-18 -11 -47.5 -15.5t-57.5 -12.5q-29 -7 -49.5 -21t-20.5 -45zM50 359q2 51 24 85t57 54t77.5 28t87.5 8q46 0 89.5 -6.5t77.5 -25.5t54.5 -53t20.5 -89v-227q0 -33 2.5 -67.5t17.5 -65.5h-171 q-5 12 -6.5 24t-3.5 25q-33 -35 -78.5 -49.5t-92.5 -14.5q-37 0 -69.5 9.5t-56.5 29t-37.5 49t-13.5 69.5q0 42 14 70t38 46t55 28t64.5 16t67 10t63.5 10q22 5 33.5 14.5t11.5 33.5q0 15 -8 25t-20 16.5t-26.5 9.5t-27.5 3q-73 0 -85 -65h-159zM507 725l-157 -149h-120 l97 149h180z"/>
<glyph glyph-name="acircumflex" horiz-adv-x="593" unicode="â" d="M199 149q0 -32 21 -45.5t50 -13.5q61 0 84 36q20 32 20 99v18q-18 -11 -47.5 -15.5t-57.5 -12.5q-29 -7 -49.5 -21t-20.5 -45zM50 359q2 51 24 85t57 54t77.5 28t87.5 8q46 0 89.5 -6.5t77.5 -25.5t54.5 -53t20.5 -89v-227q0 -33 2.5 -67.5t17.5 -65.5h-171 q-5 12 -6.5 24t-3.5 25q-33 -35 -78.5 -49.5t-92.5 -14.5q-37 0 -69.5 9.5t-56.5 29t-37.5 49t-13.5 69.5q0 42 14 70t38 46t55 28t64.5 16t67 10t63.5 10q22 5 33.5 14.5t11.5 33.5q0 15 -8 25t-20 16.5t-26.5 9.5t-27.5 3q-73 0 -85 -65h-159zM238 576h-128l112 149h152 l112 -149h-128l-60 80z"/>
<glyph glyph-name="atilde" horiz-adv-x="593" unicode="ã" d="M199 149q0 -32 21 -45.5t50 -13.5q61 0 84 36q20 32 20 99v18q-18 -11 -47.5 -15.5t-57.5 -12.5q-29 -7 -49.5 -21t-20.5 -45zM50 359q2 51 24 85t57 54t77.5 28t87.5 8q46 0 89.5 -6.5t77.5 -25.5t54.5 -53t20.5 -89v-227q0 -33 2.5 -67.5t17.5 -65.5h-171 q-5 12 -6.5 24t-3.5 25q-33 -35 -78.5 -49.5t-92.5 -14.5q-37 0 -69.5 9.5t-56.5 29t-37.5 49t-13.5 69.5q0 42 14 70t38 46t55 28t64.5 16t67 10t63.5 10q22 5 33.5 14.5t11.5 33.5q0 15 -8 25t-20 16.5t-26.5 9.5t-27.5 3q-73 0 -85 -65h-159zM488 718q-3 -26 -11.5 -49 t-23 -40t-35.5 -27.5t-49 -10.5q-23 0 -43 5.5t-38 12.5t-34 12.5t-30 5.5q-17 0 -28 -13.5t-16 -31.5h-71q3 24 12.5 48.5t24.5 44t36 31.5t48 12q20 0 40 -6t40 -14q19 -8 36 -14.5t29 -6.5q17 0 27 11.5t15 29.5h71z"/>
<glyph glyph-name="adieresis" horiz-adv-x="593" unicode="ä" d="M199 149q0 -32 21 -45.5t50 -13.5q61 0 84 36q20 32 20 99v18q-18 -11 -47.5 -15.5t-57.5 -12.5q-29 -7 -49.5 -21t-20.5 -45zM50 359q2 51 24 85t57 54t77.5 28t87.5 8q46 0 89.5 -6.5t77.5 -25.5t54.5 -53t20.5 -89v-227q0 -33 2.5 -67.5t17.5 -65.5h-171 q-5 12 -6.5 24t-3.5 25q-33 -35 -78.5 -49.5t-92.5 -14.5q-37 0 -69.5 9.5t-56.5 29t-37.5 49t-13.5 69.5q0 42 14 70t38 46t55 28t64.5 16t67 10t63.5 10q22 5 33.5 14.5t11.5 33.5q0 15 -8 25t-20 16.5t-26.5 9.5t-27.5 3q-73 0 -85 -65h-159zM330 588v125h150v-125h-150z M117 713h150v-125h-150v125z"/>
<glyph glyph-name="aring" horiz-adv-x="593" unicode="å" d="M199 149q0 -32 21 -45.5t50 -13.5q61 0 84 36q20 32 20 99v18q-18 -11 -47.5 -15.5t-57.5 -12.5q-29 -7 -49.5 -21t-20.5 -45zM50 359q2 51 24 85t57 54t77.5 28t87.5 8q46 0 89.5 -6.5t77.5 -25.5t54.5 -53t20.5 -89v-227q0 -33 2.5 -67.5t17.5 -65.5h-171 q-5 12 -6.5 24t-3.5 25q-33 -35 -78.5 -49.5t-92.5 -14.5q-37 0 -69.5 9.5t-56.5 29t-37.5 49t-13.5 69.5q0 42 14 70t38 46t55 28t64.5 16t67 10t63.5 10q22 5 33.5 14.5t11.5 33.5q0 15 -8 25t-20 16.5t-26.5 9.5t-27.5 3q-73 0 -85 -65h-159zM298 564q-22 0 -43 7 t-35.5 22t-21.5 34.5t-7 40.5q0 22 8 42t22.5 34t34.5 21t42 7t42 -7t34.5 -20.5t22.5 -34t8 -42.5t-8 -41.5t-22.5 -34t-34.5 -21.5t-42 -7zM298 616q22 0 37 15t15 37q0 23 -15 37.5t-37 14.5t-37 -14.5t-15 -37.5q0 -22 15 -37t37 -15z"/>
<glyph glyph-name="ae" horiz-adv-x="944" unicode="æ" d="M740 313q0 45 -25.5 75.5t-73.5 30.5q-23 0 -41.5 -9t-31.5 -23.5t-21 -33.5t-10 -40h203zM280 90q45 0 67.5 17.5t31.5 42t9.5 50.5t0.5 43q-17 -14 -48.5 -18.5t-63.5 -11.5q-32 -6 -55 -19.5t-23 -45.5q0 -17 8 -28.5t20 -18t26 -9t27 -2.5zM902 157 q-11 -40 -35 -71.5t-57 -54.5t-72.5 -34.5t-81.5 -11.5q-27 0 -55 4t-54.5 13.5t-49.5 24.5t-41 37q-27 -22 -53.5 -37t-55 -24.5t-61 -13.5t-70.5 -4q-41 0 -75.5 9.5t-59 29t-38.5 49t-14 69.5q0 42 14 70t38 46t55 28t64.5 16t67 10t63.5 10q20 6 31.5 11t17.5 10t8 11 t2 13q0 18 -7.5 29t-20.5 17.5t-30.5 8.5t-37.5 2q-73 0 -85 -65h-159q2 51 24 85t57 54t77.5 28t87.5 8q25 0 51.5 -3t52 -10t47.5 -20t38 -32q32 34 74 49.5t88 15.5q66 0 117.5 -26t85.5 -69.5t47.5 -93.5t13.5 -97q0 -15 -1 -30h-373q0 -23 6.5 -44t19 -37.5t32.5 -26.5 t47 -10q40 0 63 14t37 43h160z"/>
<glyph glyph-name="ccedilla" horiz-adv-x="593" unicode="ç" d="M395 329q0 16 -7 30t-18.5 24t-26.5 15.5t-31 5.5q-36 0 -57.5 -14t-33 -35.5t-15.5 -49t-4 -54.5q0 -25 5.5 -49.5t18 -43.5t31.5 -31t46 -12q45 0 68 23.5t29 65.5h165q-6 -52 -28 -93t-56.5 -69t-79.5 -42q-40 -13 -84 -15l-30 -45l2 -2q10 3 19 4t21 1q14 0 29 -4 t27.5 -13.5t20.5 -25t8 -37.5q0 -27 -10 -45.5t-27.5 -30t-41 -16.5t-49.5 -5q-33 0 -63.5 8.5t-54.5 22.5l19 45q21 -10 41.5 -14.5t40.5 -4.5q26 0 38.5 8t12.5 27q0 38 -43 38q-11 0 -20.5 -2t-19.5 -5l-22 19l49 79q-36 5 -69 17q-49 19 -85.5 54t-57 84t-20.5 109 q0 62 19 114t54.5 89.5t85.5 58.5t113 21q48 0 92.5 -13t79.5 -38.5t57 -64t27 -89.5h-165z"/>
<glyph glyph-name="egrave" horiz-adv-x="611" unicode="è" d="M413 313q-2 44 -30 75t-71 31q-45 0 -73.5 -29t-36.5 -77h211zM202 218q2 -54 32 -86t84 -32q31 0 58 14t39 43h159q-12 -45 -37.5 -77.5t-60 -53.5t-76 -31t-84.5 -10q-63 0 -115.5 18.5t-90 54t-58 87t-20.5 116.5q0 60 22 110t60.5 86t89.5 56.5t108 20.5 q70 0 122 -24.5t86 -67.5q34 -42 50 -100q13 -48 13 -103v-21h-381zM374 576h-120l-157 149h180z"/>
<glyph glyph-name="eacute" horiz-adv-x="611" unicode="é" d="M413 313q-2 44 -30 75t-71 31q-45 0 -73.5 -29t-36.5 -77h211zM202 218q2 -54 32 -86t84 -32q31 0 58 14t39 43h159q-12 -45 -37.5 -77.5t-60 -53.5t-76 -31t-84.5 -10q-63 0 -115.5 18.5t-90 54t-58 87t-20.5 116.5q0 60 22 110t60.5 86t89.5 56.5t108 20.5 q70 0 122 -24.5t86 -67.5q34 -42 50 -100q13 -48 13 -103v-21h-381zM521 725l-157 -149h-120l97 149h180z"/>
<glyph glyph-name="ecircumflex" horiz-adv-x="611" unicode="ê" d="M413 313q-2 44 -30 75t-71 31q-45 0 -73.5 -29t-36.5 -77h211zM202 218q2 -54 32 -86t84 -32q31 0 58 14t39 43h159q-12 -45 -37.5 -77.5t-60 -53.5t-76 -31t-84.5 -10q-63 0 -115.5 18.5t-90 54t-58 87t-20.5 116.5q0 60 22 110t60.5 86t89.5 56.5t108 20.5 q70 0 122 -24.5t86 -67.5q34 -42 50 -100q13 -48 13 -103v-21h-381zM256 576h-128l112 149h152l112 -149h-128l-60 80z"/>
<glyph glyph-name="edieresis" horiz-adv-x="611" unicode="ë" d="M413 313q-2 44 -30 75t-71 31q-45 0 -73.5 -29t-36.5 -77h211zM202 218q2 -54 32 -86t84 -32q31 0 58 14t39 43h159q-12 -45 -37.5 -77.5t-60 -53.5t-76 -31t-84.5 -10q-63 0 -115.5 18.5t-90 54t-58 87t-20.5 116.5q0 60 22 110t60.5 86t89.5 56.5t108 20.5 q70 0 122 -24.5t86 -67.5q34 -42 50 -100q13 -48 13 -103v-21h-381zM344 588v125h150v-125h-150zM131 713h150v-125h-150v125z"/>
<glyph glyph-name="igrave" horiz-adv-x="296" unicode="ì" d="M63 0v519h170v-519h-170zM234 576h-120l-157 149h180z"/>
<glyph glyph-name="iacute" horiz-adv-x="296" unicode="í" d="M63 0v519h170v-519h-170zM340 725l-157 -149h-120l97 149h180z"/>
<glyph glyph-name="icircumflex" horiz-adv-x="296" unicode="î" d="M63 0v519h170v-519h-170zM88 576h-128l112 149h152l112 -149h-128l-60 80z"/>
<glyph glyph-name="idieresis" horiz-adv-x="296" unicode="ï" d="M63 0v519h170v-519h-170zM180 588v125h150v-125h-150zM-33 713h150v-125h-150v125z"/>
<glyph glyph-name="eth" horiz-adv-x="611" unicode="ð" d="M202 242q0 -20 5 -42.5t17 -41.5t31.5 -31t49.5 -12t50 12t32 31t17 41.5t5 42.5t-5 42.5t-17 41t-32 31t-50 12.5t-49.5 -12.5t-31.5 -31t-17 -41t-5 -42.5zM213 648q-29 19 -55 32t-47 20l113 78q35 -12 66.5 -29.5t46.5 -31.5l124 68l68 -61l-119 -65q36 -30 67 -72 t53.5 -91t35.5 -103.5t13 -110.5q0 -70 -20 -125t-56.5 -93.5t-87 -58.5t-110.5 -20t-110.5 19.5t-86.5 54t-56 81.5t-20 102t19.5 102t53 81.5t77.5 54t93 19.5q25 0 50.5 -3.5t46.5 -17.5l2 2q-15 31 -38 59t-49 53l-128 -70l-67 60z"/>
<glyph glyph-name="ntilde" d="M57 519h165v-71h2q12 20 30 36t40 27t46 17t47 6q65 0 102.5 -21t56 -51.5t23.5 -65.5t5 -63v-333h-170v251v52q0 26 -7.5 46t-25 32.5t-52.5 12.5q-24 0 -41.5 -9.5t-28.5 -25t-16.5 -35.5t-5.5 -41v-283h-170v519zM505 718q-3 -26 -11.5 -49t-23 -40t-35.5 -27.5 t-49 -10.5q-23 0 -43 5.5t-38 12.5t-34 12.5t-30 5.5q-17 0 -28 -13.5t-16 -31.5h-71q3 24 12.5 48.5t24.5 44t36 31.5t48 12q20 0 40 -6t40 -14q19 -8 36 -14.5t29 -6.5q17 0 27 11.5t15 29.5h71z" unicode="ñ"/>
<glyph glyph-name="ograve" horiz-adv-x="611" unicode="ò" d="M202 259q0 -25 5 -50.5t17 -46.5t31.5 -34t49.5 -13t50 13t32 34t17 46.5t5 50.5t-5 50.5t-17 46.5t-32 34.5t-50 13.5t-49.5 -13.5t-31.5 -34.5t-17 -46.5t-5 -50.5zM32 259q0 58 20 108.5t56 87.5t86.5 58t110.5 21t110.5 -21t87 -58t56.5 -87.5t20 -108.5 q0 -59 -20 -109t-56.5 -86.5t-87 -57.5t-110.5 -21t-110.5 21t-86.5 57.5t-56 86.5t-20 109zM359 576h-120l-157 149h180z"/>
<glyph glyph-name="oacute" horiz-adv-x="611" unicode="ó" d="M202 259q0 -25 5 -50.5t17 -46.5t31.5 -34t49.5 -13t50 13t32 34t17 46.5t5 50.5t-5 50.5t-17 46.5t-32 34.5t-50 13.5t-49.5 -13.5t-31.5 -34.5t-17 -46.5t-5 -50.5zM32 259q0 58 20 108.5t56 87.5t86.5 58t110.5 21t110.5 -21t87 -58t56.5 -87.5t20 -108.5 q0 -59 -20 -109t-56.5 -86.5t-87 -57.5t-110.5 -21t-110.5 21t-86.5 57.5t-56 86.5t-20 109zM507 725l-157 -149h-120l97 149h180z"/>
<glyph glyph-name="ocircumflex" horiz-adv-x="611" unicode="ô" d="M202 259q0 -25 5 -50.5t17 -46.5t31.5 -34t49.5 -13t50 13t32 34t17 46.5t5 50.5t-5 50.5t-17 46.5t-32 34.5t-50 13.5t-49.5 -13.5t-31.5 -34.5t-17 -46.5t-5 -50.5zM32 259q0 58 20 108.5t56 87.5t86.5 58t110.5 21t110.5 -21t87 -58t56.5 -87.5t20 -108.5 q0 -59 -20 -109t-56.5 -86.5t-87 -57.5t-110.5 -21t-110.5 21t-86.5 57.5t-56 86.5t-20 109zM245 576h-128l112 149h152l112 -149h-128l-60 80z"/>
<glyph glyph-name="otilde" horiz-adv-x="611" unicode="õ" d="M202 259q0 -25 5 -50.5t17 -46.5t31.5 -34t49.5 -13t50 13t32 34t17 46.5t5 50.5t-5 50.5t-17 46.5t-32 34.5t-50 13.5t-49.5 -13.5t-31.5 -34.5t-17 -46.5t-5 -50.5zM32 259q0 58 20 108.5t56 87.5t86.5 58t110.5 21t110.5 -21t87 -58t56.5 -87.5t20 -108.5 q0 -59 -20 -109t-56.5 -86.5t-87 -57.5t-110.5 -21t-110.5 21t-86.5 57.5t-56 86.5t-20 109zM494 718q-3 -26 -11.5 -49t-23 -40t-35.5 -27.5t-49 -10.5q-23 0 -43 5.5t-38 12.5t-34 12.5t-30 5.5q-17 0 -28 -13.5t-16 -31.5h-71q3 24 12.5 48.5t24.5 44t36 31.5t48 12 q20 0 40 -6t40 -14q19 -8 36 -14.5t29 -6.5q17 0 27 11.5t15 29.5h71z"/>
<glyph glyph-name="odieresis" horiz-adv-x="611" unicode="ö" d="M202 259q0 -25 5 -50.5t17 -46.5t31.5 -34t49.5 -13t50 13t32 34t17 46.5t5 50.5t-5 50.5t-17 46.5t-32 34.5t-50 13.5t-49.5 -13.5t-31.5 -34.5t-17 -46.5t-5 -50.5zM32 259q0 58 20 108.5t56 87.5t86.5 58t110.5 21t110.5 -21t87 -58t56.5 -87.5t20 -108.5 q0 -59 -20 -109t-56.5 -86.5t-87 -57.5t-110.5 -21t-110.5 21t-86.5 57.5t-56 86.5t-20 109zM336 588v125h150v-125h-150zM123 713h150v-125h-150v125z"/>
<glyph glyph-name="divide" horiz-adv-x="600" unicode="÷" d="M48 181v144h504v-144h-504zM201 460q0 42 28.5 70.5t70.5 28.5t70.5 -28.5t28.5 -70.5q0 -20 -7.5 -38t-21 -31.5t-31.5 -21.5t-39 -8t-39 8t-31.5 21.5t-21 31.5t-7.5 38zM201 46q0 42 28.5 70.5t70.5 28.5t70.5 -28.5t28.5 -70.5q0 -20 -7.5 -38t-21 -31.5t-31.5 -21.5 t-39 -8t-39 8t-31.5 21.5t-21 31.5t-7.5 38z"/>
<glyph glyph-name="oslash" horiz-adv-x="611" unicode="ø" d="M371 377q-13 13 -29 20t-37 7q-30 0 -49.5 -13.5t-31.5 -34.5t-17 -46.5t-5 -50.5q0 -17 2.5 -34t7.5 -33zM241 141q23 -26 64 -26q30 0 50 13t32 34t17 46.5t5 50.5q0 33 -9 65zM46 -2l59 69q-35 37 -54 86t-19 106q0 58 20 108.5t56 87.5t86.5 58t110.5 21 q92 0 160 -48l51 60l44 -38l-52 -60q35 -37 53 -85t18 -104q0 -59 -20 -109t-56.5 -86.5t-87 -57.5t-110.5 -21q-46 0 -86 12t-73 35l-58 -66z"/>
<glyph glyph-name="ugrave" d="M573 0h-165v71h-2q-24 -40 -68.5 -63t-89.5 -23q-56 0 -93 15.5t-59 44.5t-31 70t-9 92v312h170v-301q0 -52 21.5 -72.5t62.5 -20.5q14 0 30 5t30 18.5t23.5 35.5t9.5 57v278h170v-519zM386 576h-120l-157 149h180z" unicode="ù"/>
<glyph glyph-name="uacute" d="M573 0h-165v71h-2q-24 -40 -68.5 -63t-89.5 -23q-56 0 -93 15.5t-59 44.5t-31 70t-9 92v312h170v-301q0 -52 21.5 -72.5t62.5 -20.5q14 0 30 5t30 18.5t23.5 35.5t9.5 57v278h170v-519zM528 725l-157 -149h-120l97 149h180z" unicode="ú"/>
<glyph glyph-name="ucircumflex" d="M573 0h-165v71h-2q-24 -40 -68.5 -63t-89.5 -23q-56 0 -93 15.5t-59 44.5t-31 70t-9 92v312h170v-301q0 -52 21.5 -72.5t62.5 -20.5q14 0 30 5t30 18.5t23.5 35.5t9.5 57v278h170v-519zM257 576h-128l112 149h152l112 -149h-128l-60 80z" unicode="û"/>
<glyph glyph-name="udieresis" d="M573 0h-165v71h-2q-24 -40 -68.5 -63t-89.5 -23q-56 0 -93 15.5t-59 44.5t-31 70t-9 92v312h170v-301q0 -52 21.5 -72.5t62.5 -20.5q14 0 30 5t30 18.5t23.5 35.5t9.5 57v278h170v-519zM347 588v125h150v-125h-150zM134 713h150v-125h-150v125z" unicode="ü"/>
<glyph glyph-name="yacute" horiz-adv-x="537" unicode="ý" d="M340 -46q-15 -43 -35 -68t-46 -38.5t-59.5 -17.5t-76.5 -4h-80v138h59q29 0 48.5 15.5t19.5 42.5q0 10 -5.5 29t-12.5 39t-14 38.5t-11 29.5l-134 361h180l98 -338h2l98 338h174zM486 725l-157 -149h-120l97 149h180z"/>
<glyph glyph-name="thorn" d="M227 462h2q52 72 148 72q56 0 97.5 -24t68.5 -64t40 -91.5t13 -106.5q0 -51 -13.5 -98t-41 -84t-68.5 -59t-96 -22q-95 0 -148 71h-2v-230h-170v888h170v-252zM325 404q-17 0 -35.5 -6.5t-33.5 -22.5t-25 -43t-10 -67q0 -68 22.5 -109t80.5 -41q28 0 47.5 13.5t31.5 35 t17.5 48t5.5 53.5q0 25 -5 49.5t-17 44.5t-31.5 32.5t-47.5 12.5z" unicode="þ"/>
<glyph glyph-name="dotlessi" horiz-adv-x="296" unicode="ı" d="M63 0v519h170v-519h-170z"/>
<glyph glyph-name="OE" horiz-adv-x="1111" unicode="Œ" d="M1059 565h-347v-125h317v-144h-317v-136h355v-160h-529v45q-16 -18 -36 -29.5t-41.5 -18t-43.5 -9.5t-41 -3q-80 0 -142.5 31t-106.5 82.5t-67 119t-23 139.5t23 139.5t67 119t106.5 82.5t142.5 31q44 0 88 -13t72 -49h2v47h521v-149zM396 569q-49 0 -82 -18t-53.5 -48 t-29 -68t-8.5 -78t8.5 -78t29 -68t53.5 -48t82 -18q34 0 60 14t44 37t27 52.5t9 60.5v96q0 31 -9 60.5t-27 52.5t-44 37t-60 14z"/>
<glyph glyph-name="oe" horiz-adv-x="963" unicode="œ" d="M765 313q-5 47 -29 76.5t-75 29.5q-47 0 -76 -31t-32 -75h212zM202 262q0 -27 4.5 -53.5t16.5 -47t33 -33.5t54 -13q29 0 48 14t30 35t15.5 46.5t4.5 48.5q0 24 -4 49.5t-14.5 46.5t-29 35t-48.5 14q-32 0 -53 -12.5t-33.5 -32.5t-18 -45.5t-5.5 -51.5zM555 218 q-1 -53 32.5 -85.5t86.5 -32.5q36 0 57.5 12.5t36.5 44.5h162q-12 -44 -38 -76.5t-61 -53.5t-77 -31.5t-87 -10.5q-53 0 -102 17t-84 59q-34 -43 -84 -59.5t-103 -16.5q-60 0 -108 19.5t-82.5 54.5t-53 84t-18.5 109q0 62 19 114t55 89.5t86.5 58t113.5 20.5q25 0 51 -3.5 t50 -12.5t44.5 -24t36.5 -37q15 19 35.5 33t44.5 24t49.5 15t48.5 5q71 0 122.5 -24.5t84.5 -67.5t47.5 -98.5t14.5 -117.5v-8h-380z"/>
<glyph glyph-name="Scaron" horiz-adv-x="667" unicode="Š" d="M209 240q3 -63 39 -87t96 -24q21 0 41.5 4t36.5 12.5t26 22.5t10 34q0 24 -17.5 39t-46.5 26t-65.5 19.5t-75.5 19.5q-38 11 -75.5 26t-67 38.5t-48 58t-18.5 83.5q0 58 26.5 99.5t68.5 67.5t94 38t102 12q53 0 104.5 -13.5t91.5 -41.5t65 -71.5t25 -103.5h-186 q1 24 -9 40.5t-26.5 26.5t-37.5 14.5t-42 4.5q-15 0 -31 -3t-29 -10t-21.5 -18.5t-8.5 -29.5q0 -21 17.5 -34t47 -23t66.5 -18t76 -19t76 -26.5t66 -39t47 -58t18 -82.5q0 -68 -26.5 -114t-70 -73.5t-99.5 -39.5t-115 -12q-62 0 -117.5 14t-98.5 45t-68.5 79t-25.5 117h186z M261 762l-112 149h128l60 -80l60 80h128l-112 -149h-152z"/>
<glyph glyph-name="scaron" horiz-adv-x="556" unicode="š" d="M189 171q0 -20 7.5 -34t20.5 -24q12 -9 28.5 -13.5t34.5 -4.5q12 0 26 3t26 9.5t20 17t8 25.5t-9 24.5t-21.5 15.5t-27 9t-25.5 6q-40 10 -82.5 18t-78 24.5t-58 45.5t-22.5 82q0 47 22.5 77.5t57.5 48.5t77 25.5t80 7.5q43 0 84.5 -7.5t75.5 -26t55.5 -51t23.5 -83.5 h-157q0 31 -22 45q-20 13 -54 13q-11 0 -23.5 -1t-23.5 -5t-18.5 -12t-7.5 -21q0 -18 19 -30t47.5 -19.5t62.5 -13.5t63 -12q39 -8 64.5 -25t40.5 -37t21 -41t6 -37q0 -52 -22.5 -87.5t-58 -57t-80 -31t-88.5 -9.5q-46 0 -91 8.5t-80.5 30t-58 57.5t-24.5 90h162zM205 576 l-112 149h128l60 -80l60 80h128l-112 -149h-152z"/>
<glyph glyph-name="Ydieresis" horiz-adv-x="667" unicode="Ÿ" d="M427 266v-266h-186v266l-260 448h211l142 -290l142 290h211zM367 784v125h150v-125h-150zM154 909h150v-125h-150v125z"/>
<glyph glyph-name="circumflex" horiz-adv-x="296" unicode="ˆ" d="M88 576h-128l112 149h152l112 -149h-128l-60 80z"/>
<glyph glyph-name="caron" horiz-adv-x="296" unicode="ˇ" d="M72 576l-112 149h128l60 -80l60 80h128l-112 -149h-152z"/>
<glyph glyph-name="ring" horiz-adv-x="296" unicode="˚" d="M148 564q-22 0 -43 7t-35.5 22t-21.5 34.5t-7 40.5q0 22 8 42t22.5 34t34.5 21t42 7t42 -7t34.5 -20.5t22.5 -34t8 -42.5t-8 -41.5t-22.5 -34t-34.5 -21.5t-42 -7zM148 616q22 0 37 15t15 37q0 23 -15 37.5t-37 14.5t-37 -14.5t-15 -37.5q0 -22 15 -37t37 -15z"/>
<glyph glyph-name="tilde" horiz-adv-x="296" unicode="˜" d="M338 718q-3 -26 -11.5 -49t-23 -40t-35.5 -27.5t-49 -10.5q-23 0 -43 5.5t-38 12.5t-34 12.5t-30 5.5q-17 0 -28 -13.5t-16 -31.5h-71q3 24 12.5 48.5t24.5 44t36 31.5t48 12q20 0 40 -6t40 -14q19 -8 36 -14.5t29 -6.5q17 0 27 11.5t15 29.5h71z"/>
<glyph glyph-name="uni0394" horiz-adv-x="718" unicode="Δ" d="M350 541l-130 -396h270zM12 0l251 712h170l273 -712h-694z"/>
<glyph glyph-name="uni03BC" d="M573 0h-165v71h-2q-24 -40 -68.5 -63t-89.5 -23q-13 0 -22 6v-165h-170v693h170v-301q0 -52 21.5 -72.5t62.5 -20.5q14 0 30 5t30 18.5t23.5 35.5t9.5 57v278h170v-519z" unicode="μ"/>
<glyph glyph-name="pi" horiz-adv-x="625" unicode="π" d="M600 20q-28 -14 -51 -21.5t-55 -7.5q-37 0 -61 10.5t-38.5 29.5t-20 46t-5.5 59v222h-149v-358h-150v358h-70v137h600v-137h-81v-164q0 -12 -0.5 -25t2.5 -24.5t11 -19t25 -7.5q11 0 22 4t21 8v-110z"/>
<glyph glyph-name="endash" horiz-adv-x="500" unicode="–" d="M0 344h500v-144h-500v144z"/>
<glyph glyph-name="emdash" horiz-adv-x="1000" unicode="—" d="M130 344h740v-144h-740v144z"/>
<glyph glyph-name="quoteleft" horiz-adv-x="296" unicode="‘" d="M228 354h-159v166q1 75 39 127.5t120 66.5v-80q-33 -6 -52.5 -31.5t-19.5 -56.5v-6h72v-186z"/>
<glyph glyph-name="quotesinglbase" horiz-adv-x="296" unicode="‚" d="M69 186h159v-166q-1 -75 -39 -127.5t-120 -66.5v80q33 6 52.5 31.5t19.5 56.5v6h-72v186z"/>
<glyph glyph-name="quotedblleft" horiz-adv-x="500" unicode="“" d="M214 354h-159v166q1 75 39 127.5t120 66.5v-80q-33 -6 -52.5 -31.5t-19.5 -56.5v-6h72v-186zM445 354h-159v166q1 75 39 127.5t120 66.5v-80q-33 -6 -52.5 -31.5t-19.5 -56.5v-6h72v-186z"/>
<glyph glyph-name="quotedblright" horiz-adv-x="500" unicode="”" d="M286 714h159v-166q-1 -75 -39 -127.5t-120 -66.5v80q33 6 52.5 31.5t19.5 56.5v6h-72v186zM55 714h159v-166q-1 -75 -39 -127.5t-120 -66.5v80q33 6 52.5 31.5t19.5 56.5v6h-72v186z"/>
<glyph glyph-name="dagger" d="M52 376v144h181v194h164v-194h181v-144h-181v-550h-164v550h-181z" unicode="†"/>
<glyph glyph-name="daggerdbl" d="M233 -174v194h-182v144h182v212h-182v144h182v194h164v-194h181v-144h-181v-212h182v-144h-182v-194h-164z" unicode="‡"/>
<glyph glyph-name="ellipsis" horiz-adv-x="1000" unicode="…" d="M74 0v186h186v-186h-186zM407 0v186h186v-186h-186zM740 0v186h186v-186h-186z"/>
<glyph glyph-name="perthousand" horiz-adv-x="1167" unicode="‰" d="M160 -27l404 751h99l-404 -751h-99zM71 532q0 35 7.5 66.5t25 55.5t45 38t67.5 14q42 0 70 -13.5t44.5 -36.5t23.5 -55t7 -69q0 -36 -8 -67.5t-25.5 -55t-45.5 -36.5t-67 -13q-40 0 -67.5 13.5t-44.5 37t-24.5 54.5t-7.5 67zM458 157q0 35 7.5 66.5t25 55.5t45 38 t67.5 14q42 0 70 -13.5t44.5 -36.5t23.5 -55t7 -69q0 -36 -8 -67.5t-25.5 -55t-45.5 -36.5t-67 -13q-40 0 -67.5 13.5t-44.5 37t-24.5 54.5t-7.5 67zM556 157q0 -12 0.5 -29t5 -33t14 -27.5t26.5 -11.5t26.5 11.5t14.5 27.5t6 33t1 29t-0.5 29.5t-5 34t-14 28t-27.5 11.5 q-17 0 -26.5 -11.5t-14 -28t-5.5 -34t-1 -29.5zM806 157q0 35 7.5 66.5t25 55.5t45 38t67.5 14q42 0 70 -13.5t44.5 -36.5t23.5 -55t7 -69q0 -36 -8 -67.5t-25.5 -55t-45.5 -36.5t-67 -13q-40 0 -67.5 13.5t-44.5 37t-24.5 54.5t-7.5 67zM904 157q0 -12 0.5 -29t5 -33 t14 -27.5t26.5 -11.5t26.5 11.5t14.5 27.5t6 33t1 29t-0.5 29.5t-5 34t-14 28t-27.5 11.5q-17 0 -26.5 -11.5t-14 -28t-5.5 -34t-1 -29.5zM169 532q0 -12 0.5 -29t5 -33t14 -27.5t26.5 -11.5t26.5 11.5t14.5 27.5t6 33t1 29t-0.5 29.5t-5 34t-14 28t-27.5 11.5 q-17 0 -26.5 -11.5t-14 -28t-5.5 -34t-1 -29.5z"/>
<glyph glyph-name="guilsinglleft" horiz-adv-x="241" unicode="‹" d="M41 346l159 128v-137l-86 -67l86 -66v-137l-159 127v152z"/>
<glyph glyph-name="guilsinglright" horiz-adv-x="241" unicode="›" d="M200 195l-159 -128v137l86 67l-86 66v137l159 -127v-152z"/>
<glyph glyph-name="fraction" horiz-adv-x="167" unicode="⁄" d="M-169 -27l411 751h99l-411 -751h-99z"/>
<glyph glyph-name="Euro" d="M604 656l-51 -134q-77 49 -141 49q-94 0 -132 -101h251l-33 -85h-234q-1 -10 -1.5 -18.5t-0.5 -16.5q0 -3 0.5 -12t1.5 -23h209l-36 -85h-157q27 -107 136 -107q74 0 153 61v-154q-70 -38 -160 -38q-125 0 -202 76q-66 64 -84 162h-88l33 85h44v16q-1 5 -1 10v11 q0 10 0.5 18t1.5 15h-78l33 85h57q26 104 95 166q79 70 201 70q85 0 183 -50z" unicode="€"/>
<glyph glyph-name="trademark" horiz-adv-x="1000" unicode="™" d="M386 619h-110v-317h-125v317h-110v95h345v-95zM714 475l89 239h156v-412h-110v270h-2l-89 -270h-88l-89 270h-2v-270h-110v412h156z"/>
<glyph glyph-name="partialdiff" horiz-adv-x="588" unicode="∂" d="M391 294q-19 19 -45 32t-53 13q-26 0 -45.5 -10.5t-32.5 -28t-19.5 -39.5t-6.5 -46q0 -21 5.5 -42.5t17 -38t29.5 -27t42 -10.5q36 0 57.5 21t32.5 51t14.5 64t3.5 61zM544 358q0 -65 -11 -131t-40 -119.5t-79.5 -87.5t-130.5 -34q-53 0 -97 17t-75.5 47.5t-49 74 t-17.5 97.5q0 48 16.5 90t46.5 73t71 48.5t90 17.5q37 0 66.5 -11t59.5 -31q0 30 -5 64.5t-19 64t-38 49t-62 19.5t-66 -16t-54 -41l-81 91q44 40 90.5 60.5t106.5 20.5q79 0 132 -31.5t85.5 -83t46.5 -116.5t14 -132z"/>
<glyph glyph-name="product" horiz-adv-x="757" unicode="∏" d="M556 -214v851h-354v-851h-153v1000h659v-1000h-152z"/>
<glyph glyph-name="summation" horiz-adv-x="698" unicode="∑" d="M29 -214v130l289 377l-277 362v131h615v-150h-413l253 -343l-269 -357h441v-150h-639z"/>
<glyph glyph-name="minus" horiz-adv-x="600" unicode="−" d="M48 181v144h504v-144h-504z"/>
<glyph glyph-name="radical" horiz-adv-x="603" unicode="√" d="M385 -214h-137l-142 290l-57 -27l-56 118l193 88l106 -236l156 767h161z"/>
<glyph glyph-name="infinity" horiz-adv-x="881" unicode="∞" d="M363 269q-10 13 -23 28t-28 27t-32 20t-35 8q-35 0 -54 -24.5t-19 -56.5q0 -34 20 -56.5t55 -22.5q19 0 35.5 7t31 18t26.5 24.5t23 27.5zM708 272q0 35 -20.5 57.5t-55.5 22.5q-18 0 -34.5 -8t-31 -20.5t-27 -27t-22.5 -27.5q10 -14 23 -28t28 -25t31.5 -18t35.5 -7 q36 0 54.5 23.5t18.5 57.5zM836 274q0 -45 -13.5 -84.5t-39 -69t-62.5 -46t-85 -16.5q-32 0 -60 9t-52 25t-44.5 37.5t-39.5 45.5q-19 -24 -39 -45t-43 -37t-49.5 -25t-59.5 -9q-48 0 -86 16t-64 45t-40 68t-14 86q0 46 13.5 84.5t39 66.5t62.5 44t84 16q35 0 62.5 -10 t51 -27t43.5 -39.5t39 -48.5q19 27 39 49.5t43.5 39.5t51.5 26.5t63 9.5q47 0 84 -16t62.5 -44t39 -67t13.5 -84z"/>
<glyph glyph-name="approxequal" horiz-adv-x="593" unicode="≈" d="M578 252q-2 -33 -11.5 -70t-27.5 -68.5t-46.5 -52.5t-68.5 -21q-27 0 -61.5 9.5t-70.5 21t-69.5 21t-56.5 9.5q-24 0 -37.5 -16t-15.5 -38h-98q0 31 10.5 67.5t30 68t48.5 52.5t65 21q20 0 43.5 -5t47.5 -12t47.5 -14.5t42.5 -12.5q17 -5 35 -10.5t37 -5.5q29 0 40 15 t16 41h100zM578 497q-2 -32 -12.5 -69t-30 -68.5t-48.5 -52.5t-68 -21q-28 0 -60 9.5t-65.5 21t-66 21t-60.5 9.5q-23 0 -37.5 -16.5t-16.5 -38.5h-98q0 34 10.5 71t31.5 67.5t51 50.5t69 20q29 0 61 -9t64 -20t63.5 -20t60.5 -9q26 0 38.5 15t14.5 39h99z"/>
<glyph glyph-name="notequal" horiz-adv-x="593" unicode="≠" d="M282 75l-79 -162l-133 66l47 96h-92v151h167l45 90h-212v152h287l79 161l132 -66l-46 -95h91v-152h-166l-45 -90h211v-151h-286z"/>
<glyph glyph-name="lessequal" horiz-adv-x="593" unicode="≤" d="M25 -51v152h543v-152h-543zM25 290v150l543 152v-155l-332 -72l332 -84v-156z"/>
<glyph glyph-name="greaterequal" horiz-adv-x="593" unicode="≥" d="M25 -51v152h543v-152h-543zM25 125v156l331 84l-331 72v155l543 -152v-150z"/>
<glyph glyph-name="lozenge" horiz-adv-x="593" unicode="◊" d="M296 593l-106 -237l106 -237l105 237zM364 -35h-138l-191 391l193 391h136l194 -391z"/>
</font>
</defs>
</svg>
